<svg width="50" height="35" viewBox="0 0 50 35" fill="none" xmlns="http://www.w3.org/2000/svg">
<path d="M48.9117 18.6756L34.8231 10.222L36.5814 9.10407C36.8778 8.91463 37.057 8.58727 37.057 8.23521C37.057 7.88315 36.8778 7.5558 36.5814 7.36635L25.2578 0.160603C25.0925 0.0557033 24.9008 0 24.705 0C24.5093 0 24.3175 0.0557033 24.1522 0.160603L12.8287 7.36655C12.5321 7.5559 12.353 7.88325 12.353 8.23531C12.353 8.58737 12.5321 8.91473 12.8286 9.10417L14.5869 10.2241L0.500311 18.6756C0.191487 18.8609 1.52905e-05 19.1944 1.52905e-05 19.5547C-0.000952714 19.7321 0.0440561 19.9067 0.130653 20.0615C0.217251 20.2162 0.342481 20.346 0.494135 20.4379L24.1707 34.8497C24.3318 34.9483 24.5171 35.0003 24.706 35C24.8949 35.0003 25.0802 34.9483 25.2413 34.8497L48.9179 20.438C49.069 20.3455 49.1939 20.2157 49.2804 20.061C49.367 19.9064 49.4123 19.732 49.412 19.5548C49.4111 19.3776 49.3646 19.2037 49.277 19.0497C49.1893 18.8957 49.0635 18.7669 48.9117 18.6756ZM24.706 2.25029L34.1128 8.23531L24.706 14.2203L15.2992 8.23531L24.706 2.25029ZM16.5283 11.4594L24.1521 16.31C24.3179 16.4149 24.5099 16.4706 24.706 16.4706C24.8975 16.4706 25.091 16.417 25.2577 16.31L32.8816 11.4573L34.2384 12.2726L24.706 18.3401L15.1715 12.2727L16.5283 11.4594ZM3.02032 19.561L13.1992 13.4566L22.7893 19.559L13.121 25.7107L3.02032 19.561ZM24.706 32.7642L15.081 26.9047L24.706 20.7798L34.331 26.9048L24.706 32.7642ZM36.2911 25.7128L26.6228 19.559L36.2129 13.4566L46.3918 19.5631L36.2911 25.7128Z" fill="#5F9FC0"/>
</svg>
