<svg width="183" height="46" viewBox="0 0 183 46" fill="none" xmlns="http://www.w3.org/2000/svg">
<g clip-path="url(#clip0_403_442)">
<path d="M73.6838 22.3093L71.6096 21.7095C71.5553 21.6926 71.4987 21.7011 71.4485 21.7285C71.3979 21.756 71.3623 21.8024 71.3477 21.8552C71.3038 22.0094 71.2555 22.1635 71.2555 22.1635C70.9894 22.9322 70.4865 23.6882 69.8015 24.3492C68.9299 25.1897 67.8679 25.7366 66.5545 26.0217C65.8107 26.1822 64.2353 26.197 63.5457 26.0492C60.9961 25.5022 59.1378 23.8339 58.3168 21.3548C57.7258 19.5703 57.7135 17.391 58.283 15.6699C59.0205 13.4484 60.464 11.9427 62.5655 11.1993C63.1583 11.0177 63.9063 10.834 64.9454 10.8319C64.9559 10.8319 64.9664 10.8319 64.9769 10.8319C66.0178 10.8319 66.5376 10.929 67.1304 11.1085C69.0307 11.6512 70.6376 13.0915 71.2263 14.7767C71.2847 14.9435 71.3353 15.085 71.3623 15.1589C71.4001 15.2645 71.5133 15.3215 71.6224 15.2898L73.6838 14.6689C73.7947 14.6352 73.8576 14.519 73.8261 14.4071C73.7572 14.1621 73.5747 13.5539 73.3926 13.1654C72.6465 11.5795 71.182 10.1287 69.4725 9.284C67.8364 8.47518 65.7039 8.12466 63.7744 8.34426C60.464 8.72017 57.7363 10.6228 56.2905 13.5603C55.0757 16.0332 54.8786 19.2895 55.7794 22.0622C56.9714 25.7303 60.0742 28.2496 63.8789 28.6382C64.2727 28.6783 64.6625 28.6973 65.0481 28.6973C68.7606 28.6973 71.9615 26.8537 73.3967 23.8065C73.6395 23.3102 73.7928 22.7295 73.8325 22.5648C73.8576 22.4529 73.7928 22.3409 73.6838 22.3093Z" fill="#26201E"/>
<path d="M87.7957 14.5042H86.078C86.0127 14.5042 85.952 14.5337 85.9123 14.5865L79.359 23.0082C79.2039 23.2088 78.9798 23.2215 78.8251 23.1666C78.6676 23.1117 78.5024 22.9638 78.5002 22.7104L78.4773 14.7153C78.4773 14.5992 78.3806 14.5042 78.2656 14.5042H76.1326C76.0153 14.5042 75.9213 14.5992 75.9213 14.7174V28.1503C75.9213 28.2685 76.0153 28.3636 76.1326 28.3636H77.8402C77.9051 28.3636 77.9658 28.334 78.0059 28.2833L84.5715 19.9187C84.7267 19.7202 84.9485 19.7075 85.1059 19.7624C85.2606 19.8173 85.4286 19.9652 85.4286 20.2185L85.4514 28.1545C85.4514 28.2706 85.5477 28.3657 85.6632 28.3657H87.7957C87.913 28.3657 88.0075 28.2706 88.0075 28.1524V14.7196C88.0075 14.6013 87.9112 14.5042 87.7957 14.5042Z" fill="#26201E"/>
<path d="M106.492 14.5021L104.217 14.5063C104.137 14.5063 104.064 14.5528 104.03 14.6246L99.2576 24.195C99.1741 24.3619 99.0148 24.4611 98.8305 24.4611C98.6461 24.4611 98.4845 24.3619 98.4029 24.195L93.5947 14.6204C93.5591 14.5486 93.486 14.5021 93.4062 14.5021H91.1458C91.0286 14.5021 90.9341 14.5971 90.9341 14.7154V28.1482C90.9341 28.2665 91.0286 28.3615 91.1458 28.3615H93.1675C93.2848 28.3615 93.3793 28.2665 93.3793 28.1482L93.3998 21.1478C93.3998 20.8669 93.5992 20.7191 93.7708 20.679C93.9406 20.6389 94.1834 20.6811 94.3093 20.9324L98.0154 28.3594L99.6369 28.3615L102.107 23.3588L103.347 20.8606C103.473 20.6072 103.716 20.5649 103.888 20.6072C104.058 20.6473 104.257 20.7951 104.257 21.0781L104.258 28.1503C104.258 28.2686 104.353 28.3636 104.47 28.3636H106.492C106.609 28.3636 106.704 28.2686 106.704 28.1503V14.7154C106.704 14.5992 106.609 14.5021 106.492 14.5021Z" fill="#26201E"/>
<path d="M154.053 14.5042H151.975C151.858 14.5042 151.764 14.5992 151.764 14.7174V19.8004C151.764 20.0665 151.548 20.284 151.284 20.284H145.378C145.114 20.284 144.9 20.0686 144.898 19.8026L144.873 14.7428C144.873 14.6287 144.779 14.5337 144.664 14.5316L142.558 14.5042C142.501 14.5105 142.447 14.5253 142.407 14.5654C142.367 14.6055 142.344 14.6604 142.344 14.7174V28.1503C142.344 28.2685 142.438 28.3636 142.556 28.3636H144.689C144.806 28.3636 144.9 28.2685 144.9 28.1503V23.0673C144.9 22.8012 145.116 22.5837 145.38 22.5837H151.284C151.548 22.5837 151.764 22.8012 151.764 23.0673V28.1503C151.764 28.2685 151.858 28.3636 151.975 28.3636H154.053C154.171 28.3636 154.265 28.2685 154.265 28.1503V14.7174C154.265 14.6013 154.171 14.5042 154.053 14.5042Z" fill="#26201E"/>
<path d="M168.758 14.5042H167.045C166.979 14.5042 166.919 14.5337 166.879 14.5865L160.322 23.0124C160.166 23.213 159.945 23.2257 159.787 23.1708C159.63 23.1159 159.465 22.968 159.463 22.7146L159.44 14.7153C159.44 14.5992 159.343 14.5042 159.228 14.5042H157.095C156.978 14.5042 156.884 14.5992 156.884 14.7174V28.1503C156.884 28.2685 156.978 28.3636 157.095 28.3636H158.807C158.872 28.3636 158.933 28.334 158.973 28.2833L165.534 19.9229C165.689 19.7244 165.911 19.7117 166.068 19.7666C166.223 19.8216 166.391 19.9693 166.391 20.2228L166.414 28.1524C166.414 28.2685 166.51 28.3636 166.626 28.3636H168.758C168.876 28.3636 168.97 28.2685 168.97 28.1503V14.7174C168.97 14.6013 168.876 14.5042 168.758 14.5042Z" fill="#26201E"/>
<path d="M133.528 14.1789C133.49 14.1789 133.453 14.1789 133.415 14.1789C133.153 14.1831 132.826 14.1958 132.732 14.2085L132.181 14.2909C130.572 14.5273 128.942 15.4945 127.93 16.8101C127.187 17.7773 126.787 18.6727 126.543 19.8996C126.378 20.7465 126.376 22.1191 126.542 22.9617C126.841 24.4758 127.432 25.6161 128.46 26.653C129.732 27.9369 131.216 28.5789 133.13 28.6803C133.264 28.6867 133.396 28.6908 133.528 28.6908C137.056 28.6908 139.945 26.2285 140.471 22.7083C140.58 21.9839 140.58 20.8901 140.471 20.1657C139.945 16.6243 137.098 14.1789 133.528 14.1789ZM135.383 25.9329C134.576 26.3046 133.589 26.427 132.675 26.2665C131.71 26.0955 131.058 25.7492 130.354 25.0312C129.401 24.0577 128.976 22.949 128.976 21.4349C128.976 19.9208 129.401 18.8121 130.354 17.8386C131.031 17.148 131.702 16.7806 132.598 16.6095C132.808 16.5694 133.107 16.5504 133.422 16.5504C133.876 16.5504 134.362 16.5905 134.647 16.6645C135.927 16.9981 136.92 17.8449 137.521 19.1119C137.901 19.9102 137.972 20.2797 137.972 21.4328C137.972 22.3091 137.957 22.495 137.856 22.8645C137.467 24.2879 136.589 25.3775 135.383 25.9329Z" fill="#26201E"/>
<path d="M182.801 14.5677C182.762 14.5275 182.709 14.5064 182.653 14.5064C182.653 14.5064 182.653 14.5064 182.65 14.5064L179.093 14.5127C177.092 14.517 175.287 14.5423 175.068 14.5698C173.818 14.7281 172.712 15.292 172.031 16.1177C171.411 16.8694 171.166 17.5811 171.126 18.7447C171.09 19.7414 171.183 20.225 171.549 20.9958C171.761 21.4393 171.893 21.6251 172.249 21.982C172.774 22.5078 173.223 22.7802 173.967 23.0252L174.323 23.1434L173.353 24.6259C172.326 26.1949 171.371 27.652 171.117 28.0364C171.074 28.1018 171.071 28.1863 171.107 28.256C171.145 28.3257 171.214 28.3679 171.291 28.3679C171.449 28.3679 171.788 28.3658 172.414 28.3658H173.598C173.669 28.3658 173.734 28.3299 173.774 28.2708L176.783 23.6925C176.872 23.5573 177.021 23.475 177.182 23.475H179.883C180.147 23.475 180.363 23.6925 180.363 23.9586V28.1525C180.363 28.2708 180.457 28.3658 180.574 28.3658H182.653C182.77 28.3658 182.864 28.2708 182.864 28.1525V14.7197C182.864 14.6606 182.841 14.6078 182.801 14.5677ZM180.363 17.0679V20.9134C180.363 21.0444 180.312 21.1647 180.22 21.2577C180.13 21.3485 180.011 21.397 179.883 21.397C179.881 21.397 179.881 21.397 179.879 21.397L178.048 21.3802C176.039 21.3611 175.557 21.3421 175.329 21.2745C174.308 20.9663 173.742 20.3517 173.598 19.3972C173.481 18.6285 173.686 17.8725 174.145 17.3784C174.509 16.9835 175.022 16.7428 175.714 16.6371C175.842 16.6181 176.887 16.5949 178.238 16.5907L179.879 16.5865C179.879 16.5865 179.879 16.5865 179.881 16.5865C180.009 16.5865 180.13 16.6371 180.22 16.7279C180.312 16.8166 180.363 16.9391 180.363 17.0679Z" fill="#26201E"/>
<path d="M120.763 15.2306C120.17 14.9729 119.19 14.7047 118.53 14.6182C118.275 14.5844 117.983 14.5442 117.887 14.5295L117.834 14.521V8.82773C117.834 8.70946 117.74 8.61447 117.623 8.61447H115.986C115.869 8.61447 115.775 8.70946 115.775 8.82773V14.5168L115.643 14.5337C114.461 14.6857 113.693 14.8695 112.894 15.1904C110.667 16.09 109.161 17.9505 108.761 20.2945C108.644 20.983 108.641 22.2162 108.757 22.8835C109.178 25.3247 110.843 27.2253 113.326 28.0975C113.988 28.3298 114.819 28.5177 115.442 28.5726L115.748 28.6L115.775 33.7083C115.775 33.8245 115.871 33.9195 115.986 33.9195H117.621C117.736 33.9195 117.832 33.8245 117.832 33.7083L117.86 28.6L118.27 28.5472C119.391 28.4057 120.566 28.0341 121.499 27.5294C123.208 26.6023 124.409 25.103 124.876 23.3059C125.052 22.6301 125.098 21.1624 124.968 20.3959C124.572 18.0413 123.118 16.2526 120.763 15.2306ZM122.339 22.7019C121.939 24.2308 120.491 25.4662 118.467 26.0068C118.321 26.0448 118.167 26.0153 118.048 25.9223C117.929 25.8315 117.86 25.6922 117.86 25.5422L117.832 21.5637V17.5155C117.832 17.3719 117.895 17.2346 118.006 17.1417C118.092 17.0699 118.201 17.0298 118.312 17.0298C118.341 17.0298 118.371 17.0319 118.4 17.0382C118.532 17.0636 118.649 17.0868 118.727 17.1058C120.686 17.5999 122.056 18.9367 122.391 20.6831C122.496 21.2364 122.473 22.1972 122.339 22.7019ZM115.802 25.5971C115.802 25.745 115.74 25.8822 115.626 25.9751C115.515 26.0681 115.371 26.1061 115.228 26.0744C114.637 25.954 113.825 25.7027 113.336 25.4113C112.808 25.0966 112.098 24.3723 111.818 23.8591C111.091 22.533 111.067 20.6958 111.763 19.3928C112.367 18.263 113.343 17.5007 114.665 17.129C114.727 17.1121 114.918 17.0699 115.201 17.0129C115.232 17.0065 115.264 17.0044 115.295 17.0044C115.404 17.0044 115.511 17.0425 115.599 17.1142C115.71 17.2071 115.775 17.3423 115.775 17.488V21.5426L115.802 25.5971Z" fill="#26201E"/>
<path d="M14.77 28.9469C14.8308 28.666 14.7805 28.3788 14.6255 28.1381C14.3091 27.6397 13.6492 27.494 13.1548 27.815L3.93451 33.7743C3.69567 33.9285 3.53015 34.1693 3.4694 34.448C3.40864 34.7288 3.45892 35.014 3.61396 35.2568C3.76689 35.4976 4.00573 35.6644 4.28227 35.7256C4.3577 35.7425 4.43522 35.751 4.51064 35.751C4.71175 35.751 4.90867 35.6939 5.08259 35.5799L14.3028 29.6205C14.5458 29.4643 14.7093 29.2256 14.77 28.9469Z" fill="#FC9D27"/>
<path d="M13.4731 25.5849C13.3076 25.0169 12.7168 24.6895 12.1533 24.8564L1.6404 27.9564C1.36804 28.0367 1.14179 28.2204 1.00561 28.4717C0.869436 28.723 0.838002 29.0123 0.917613 29.2889C1.05379 29.7556 1.47908 30.0618 1.93999 30.0618C2.03845 30.0618 2.13901 30.0471 2.23748 30.0175L12.7483 26.9196C13.3139 26.7506 13.6387 26.153 13.4731 25.5849Z" fill="#FC9D27"/>
<path d="M12.015 23.8809C12.6016 23.8809 13.0793 23.3994 13.0814 22.8081C13.0814 22.5209 12.9704 22.2527 12.7713 22.05C12.5702 21.8472 12.3041 21.7353 12.0192 21.7353L1.06638 21.7226C1.06638 21.7226 1.06637 21.7226 1.06428 21.7226C0.477671 21.7226 0 22.2041 0 22.7954C0 23.0826 0.111045 23.3508 0.310074 23.5535C0.5091 23.7562 0.777257 23.8682 1.06218 23.8682L12.015 23.8809Z" fill="#FC9D27"/>
<path d="M1.653 17.6364L12.1575 20.7575C12.2581 20.7871 12.3586 20.8019 12.4592 20.8019C12.6352 20.8019 12.809 20.7575 12.9662 20.6709C13.2155 20.5337 13.3977 20.3077 13.4774 20.0311C13.557 19.7544 13.5277 19.4651 13.3915 19.2138C13.2553 18.9625 13.0311 18.7788 12.7567 18.6985L2.25217 15.5774C1.97982 15.4972 1.69071 15.5267 1.4414 15.664C1.19209 15.8012 1.00982 16.0272 0.930207 16.3038C0.766794 16.8719 1.08943 17.4695 1.653 17.6364Z" fill="#FC9D27"/>
<path d="M3.95962 11.8247L13.1673 17.8031C13.3412 17.9171 13.5402 17.9741 13.7413 17.9741C13.8168 17.9741 13.8922 17.9656 13.9697 17.9487C14.2483 17.8875 14.4851 17.7228 14.6401 17.4821C14.9585 16.9858 14.814 16.3185 14.3217 15.9996L5.114 10.0212C4.87514 9.86708 4.59023 9.81428 4.31159 9.87343C4.03295 9.93466 3.79621 10.0994 3.64118 10.3422C3.32273 10.8406 3.4652 11.5058 3.95962 11.8247Z" fill="#FC9D27"/>
<path d="M14.9606 15.2543C15.1471 15.4718 15.4048 15.6027 15.6897 15.6238C15.7169 15.626 15.7421 15.626 15.7693 15.626C16.0249 15.626 16.2679 15.5352 16.4648 15.3641C16.6807 15.1762 16.8105 14.9164 16.8315 14.6292C16.8524 14.3441 16.7602 14.0675 16.5738 13.85L9.41085 5.50016C9.02747 5.05244 8.35288 5.00387 7.90875 5.39031C7.69294 5.57827 7.56306 5.83803 7.54211 6.12309C7.52116 6.4082 7.61335 6.68696 7.79981 6.90233L14.9606 15.2543Z" fill="#FC9D27"/>
<path d="M17.3951 13.3198C17.5124 13.5817 17.724 13.7802 17.99 13.8794C18.1115 13.9259 18.2373 13.9491 18.3629 13.9491C18.5138 13.9491 18.6625 13.9175 18.8029 13.852C19.3371 13.607 19.5739 12.9693 19.3308 12.4308L14.793 2.38307C14.6757 2.12121 14.4641 1.92271 14.198 1.82346C13.932 1.7221 13.6428 1.73265 13.3831 1.85091C12.8488 2.09588 12.6121 2.73362 12.8551 3.27212L17.3951 13.3198Z" fill="#FC9D27"/>
<path d="M20.2716 12.1542C20.347 12.6885 20.8037 13.0749 21.3254 13.0749C21.3756 13.0749 21.4259 13.0707 21.4762 13.0644C22.0565 12.9799 22.463 12.4372 22.3792 11.8501L20.8309 0.921799C20.7911 0.638825 20.6445 0.387528 20.4161 0.214365C20.1899 0.043313 19.9091 -0.0305996 19.6263 0.0116354C19.3456 0.0517587 19.0963 0.201692 18.9244 0.429761C18.7548 0.659939 18.6814 0.940806 18.7233 1.22589L20.2716 12.1542Z" fill="#FC9D27"/>
<path d="M24.2584 13.0664C24.3108 13.0749 24.361 13.077 24.4134 13.077C24.6418 13.077 24.8617 13.0031 25.0482 12.8637C25.2766 12.6926 25.4232 12.4413 25.4651 12.1584L27.0343 1.23219C27.1181 0.647234 26.7138 0.102406 26.1335 0.0158244C25.551 -0.0707573 25.0105 0.338922 24.9267 0.923878L23.3575 11.8501C23.3177 12.133 23.3889 12.416 23.5586 12.6462C23.7284 12.8764 23.9756 13.0263 24.2584 13.0664Z" fill="#FC9D27"/>
<path d="M26.3723 13.2586C26.4707 13.5267 26.6677 13.74 26.9275 13.8604C27.0699 13.9258 27.2208 13.9575 27.3695 13.9575C27.7739 13.9575 28.1594 13.7252 28.3395 13.3324L32.9004 3.29532C33.1455 2.75682 32.9088 2.11907 32.3767 1.872C31.8424 1.62704 31.2097 1.86355 30.9646 2.39994L26.4037 12.4371C26.2843 12.6989 26.2738 12.9903 26.3723 13.2586Z" fill="#FC9D27"/>
<path d="M28.901 14.6439C28.9219 14.9289 29.0497 15.1908 29.2655 15.3788C29.4603 15.5498 29.7055 15.6427 29.961 15.6427C29.9862 15.6427 30.0113 15.6427 30.0365 15.6406C30.3193 15.6195 30.5791 15.4907 30.7656 15.2732L37.9473 6.9381C38.1338 6.72268 38.226 6.44608 38.205 6.15886C38.1841 5.87168 38.0563 5.61192 37.8405 5.42396C37.6247 5.23605 37.3502 5.14525 37.0674 5.16425C36.7846 5.18536 36.5248 5.31416 36.3383 5.5317L29.1566 13.8668C28.9743 14.0821 28.8821 14.3588 28.901 14.6439Z" fill="#FC9D27"/>
<path d="M31.0862 17.5012C31.2391 17.7419 31.4779 17.9088 31.7545 17.97C31.832 17.9869 31.9074 17.9953 31.985 17.9953C32.1861 17.9953 32.383 17.9383 32.5569 17.8243L41.7771 11.865C42.016 11.7108 42.1815 11.4701 42.2422 11.1913C42.303 10.9104 42.2527 10.6232 42.0976 10.3825C41.9447 10.1418 41.7059 9.97491 41.4294 9.91369C41.1528 9.85246 40.8679 9.90311 40.6269 10.0594L31.4067 16.0188C30.9123 16.3376 30.7698 17.0028 31.0862 17.5012Z" fill="#FC9D27"/>
<path d="M32.3264 19.237C32.1902 19.4883 32.1587 19.7776 32.2383 20.0543C32.318 20.3288 32.5002 20.5569 32.7495 20.6941C32.9088 20.7828 33.0826 20.8271 33.2586 20.8271C33.3592 20.8271 33.4597 20.8124 33.5582 20.7828L44.069 17.6828C44.6326 17.5159 44.9573 16.9204 44.7918 16.3524C44.6263 15.7843 44.0355 15.457 43.4719 15.6238L32.9612 18.7217C32.6888 18.802 32.4625 18.9857 32.3264 19.237Z" fill="#FC9D27"/>
<path d="M45.4266 22.0604C45.2401 21.8724 44.995 21.7689 44.7311 21.7689L28.3018 21.7584C27.8095 19.1799 25.5552 17.2287 22.8568 17.2287C19.7981 17.2287 17.3091 19.7374 17.3091 22.8206C17.3091 25.9037 19.7981 28.4125 22.8568 28.4125C25.5468 28.4125 27.7948 26.4718 28.2976 23.906L44.729 23.9166C44.729 23.9166 44.729 23.9166 44.7311 23.9166C44.9929 23.9166 45.2401 23.8131 45.4245 23.6273C45.611 23.4414 45.7135 23.1922 45.7135 22.9262V22.7615C45.7135 22.4954 45.611 22.2462 45.4266 22.0604Z" fill="#FC9D27"/>
<path d="M44.0607 28.0008L33.5562 24.8796C33.2838 24.7993 32.9947 24.8289 32.7454 24.9662C32.4961 25.1034 32.3139 25.3294 32.2342 25.606C32.1546 25.8827 32.1839 26.172 32.3201 26.4233C32.4563 26.6746 32.6805 26.8583 32.9549 26.9386L43.4594 30.0597C43.56 30.0893 43.6605 30.1041 43.7611 30.1041C43.9371 30.1041 44.111 30.0597 44.2681 29.9731C44.5174 29.8359 44.6997 29.6099 44.7793 29.3333C44.8589 29.0566 44.8296 28.7673 44.6934 28.516C44.5593 28.2647 44.333 28.081 44.0607 28.0008Z" fill="#FC9D27"/>
<path d="M41.7541 33.8123L32.5464 27.834C32.3075 27.6777 32.0226 27.627 31.744 27.6861C31.4654 27.7474 31.2286 27.9121 31.0736 28.155C30.7551 28.6512 30.8997 29.3164 31.392 29.6374L40.5997 35.6158C40.7736 35.7298 40.9726 35.7868 41.1737 35.7868C41.2491 35.7868 41.3246 35.7784 41.4 35.7615C41.6786 35.7003 41.9153 35.5355 42.0704 35.2948C42.2254 35.0541 42.2757 34.7669 42.217 34.486C42.1563 34.2072 41.9929 33.9665 41.7541 33.8123Z" fill="#FC9D27"/>
<path d="M30.7509 30.3828C30.5644 30.1652 30.3067 30.0343 30.0239 30.0132C29.739 29.9942 29.4645 30.085 29.2508 30.2709C28.8067 30.6573 28.7585 31.3373 29.1419 31.785L36.3048 40.1348C36.5143 40.3798 36.8118 40.5065 37.1114 40.5065C37.3586 40.5065 37.6058 40.4199 37.807 40.2446C38.0227 40.0567 38.1526 39.797 38.1736 39.5118C38.1945 39.2268 38.1024 38.948 37.918 38.7326L30.7509 30.3828Z" fill="#FC9D27"/>
<path d="M28.3185 32.3172C28.2012 32.0553 27.9896 31.8568 27.7235 31.7576C27.4575 31.6562 27.1683 31.6668 26.9086 31.785C26.3743 32.03 26.1376 32.6677 26.3806 33.2062L30.9206 43.2539C31.0379 43.5158 31.2495 43.7143 31.5156 43.8136C31.6371 43.86 31.7628 43.8833 31.8885 43.8833C32.0393 43.8833 32.1881 43.8516 32.3284 43.7861C32.8626 43.5412 33.0994 42.9034 32.8564 42.3649L28.3185 32.3172Z" fill="#FC9D27"/>
<path d="M25.4421 33.4851C25.3583 32.9001 24.8199 32.4883 24.2374 32.5749C23.6571 32.6594 23.2507 33.2021 23.3345 33.7892L24.8806 44.7175C24.9204 45.0005 25.0692 45.2518 25.2955 45.4249C25.4819 45.5664 25.704 45.6403 25.9324 45.6403C25.9826 45.6403 26.035 45.6361 26.0853 45.6298C26.366 45.5897 26.6153 45.4418 26.7871 45.2116C26.9589 44.9814 27.0301 44.7006 26.9903 44.4155L25.4421 33.4851Z" fill="#FC9D27"/>
<path d="M21.4553 32.5707C20.8728 32.4842 20.3323 32.8938 20.2485 33.4788L18.6793 44.405C18.6374 44.6879 18.7087 44.9709 18.8804 45.2011C19.0501 45.4313 19.2995 45.5791 19.5802 45.6213C19.6326 45.6298 19.6829 45.6319 19.7352 45.6319C19.9636 45.6319 20.1836 45.5579 20.37 45.4186C20.5984 45.2475 20.745 44.9962 20.7869 44.7133L22.3561 33.7871C22.4399 33.2 22.0356 32.6552 21.4553 32.5707Z" fill="#FC9D27"/>
<path d="M18.7862 31.7765C18.2519 31.5295 17.6192 31.7681 17.3741 32.3045L12.8132 42.3416C12.6938 42.6013 12.6833 42.8928 12.7839 43.1631C12.8823 43.4313 13.0793 43.6445 13.3391 43.7649C13.4794 43.8304 13.6303 43.8621 13.7811 43.8621C13.9068 43.8621 14.0325 43.8388 14.152 43.7945C14.418 43.6952 14.6296 43.4967 14.749 43.2349L19.3099 33.1977C19.555 32.6613 19.3204 32.0236 18.7862 31.7765Z" fill="#FC9D27"/>
<path d="M16.446 30.2582C16.0019 29.8717 15.3294 29.9182 14.9439 30.3638L7.76211 38.6988C7.37662 39.1465 7.42481 39.8244 7.86898 40.213C8.0638 40.384 8.30891 40.4769 8.56452 40.4769C8.58967 40.4769 8.61481 40.4769 8.64201 40.4748C8.92486 40.4537 9.18467 40.3249 9.37109 40.1073L16.5529 31.7723C16.9383 31.3267 16.8902 30.6467 16.446 30.2582Z" fill="#FC9D27"/>
<path d="M128.581 40.809C128.38 40.809 128.185 40.809 127.982 40.809C127.523 39.7257 127.064 38.6403 126.603 37.5549C126.601 37.5549 126.597 37.5549 126.595 37.557C126.595 38.6382 126.595 39.7215 126.595 40.807C126.379 40.807 126.171 40.807 125.958 40.807C125.958 39.3118 125.958 37.8188 125.958 36.3216C126.239 36.3216 126.513 36.3216 126.796 36.3216C127.29 37.5063 127.785 38.691 128.283 39.8841C128.782 38.691 129.277 37.5063 129.771 36.3216C130.05 36.3216 130.324 36.3216 130.603 36.3216C130.603 37.8146 130.603 39.3097 130.603 40.807C130.395 40.807 130.186 40.807 129.97 40.807C129.97 39.7236 129.97 38.6403 129.97 37.5591C129.966 37.557 129.962 37.557 129.955 37.5549C129.501 38.6382 129.041 39.7215 128.581 40.809Z" fill="#26201E"/>
<path d="M122.66 40.8871C122.09 40.8956 121.604 40.7604 121.189 40.4268C120.77 40.091 120.5 39.6496 120.393 39.1175C120.297 38.6381 120.316 38.1651 120.479 37.6984C120.563 37.4598 120.689 37.2507 120.84 37.0522C121.15 36.651 121.562 36.425 122.044 36.2962C122.363 36.2117 122.681 36.2012 122.997 36.2687C123.465 36.3658 123.884 36.5686 124.209 36.9318C124.388 37.1324 124.54 37.3563 124.638 37.6118C124.774 37.9708 124.827 38.3425 124.806 38.7247C124.787 39.0752 124.699 39.4068 124.54 39.7193C124.418 39.9579 124.248 40.1607 124.049 40.3402C123.643 40.7139 123.157 40.866 122.66 40.8871ZM121.02 38.598C121.014 39.014 121.156 39.4216 121.466 39.7531C122.134 40.469 123.251 40.3381 123.76 39.6539C123.915 39.4469 124.03 39.2252 124.083 38.9697C124.177 38.4966 124.127 38.0426 123.88 37.6245C123.666 37.2633 123.341 37.0395 122.945 36.9318C122.614 36.8431 122.285 36.8664 121.967 37.0163C121.653 37.1641 121.401 37.3753 121.231 37.6857C121.085 37.9602 121.018 38.2495 121.02 38.598Z" fill="#26201E"/>
<path d="M132.086 36.3216C133.238 36.3216 134.386 36.3216 135.538 36.3216C135.538 37.8167 135.538 39.3097 135.538 40.807C135.316 40.807 135.094 40.807 134.868 40.807C134.868 39.5167 134.868 38.2242 134.868 36.9298C134.164 36.9298 133.464 36.9298 132.758 36.9298C132.758 38.2221 132.758 39.5124 132.758 40.807C132.532 40.807 132.312 40.807 132.086 40.807C132.086 39.3139 132.086 37.8209 132.086 36.3216Z" fill="#26201E"/>
<path d="M138.178 36.9296C138.164 37.1218 138.147 37.3076 138.132 37.4913C138.094 37.9686 138.056 38.4438 138.019 38.921C138 39.1448 137.985 39.3687 137.962 39.5926C137.935 39.8607 137.862 40.112 137.721 40.3443C137.529 40.6653 137.235 40.8152 136.879 40.8596C136.762 40.8743 136.644 40.8722 136.521 40.8786C136.521 40.6526 136.521 40.4372 136.521 40.2091C136.598 40.2091 136.676 40.2155 136.751 40.207C137.011 40.1796 137.171 40.0191 137.237 39.7784C137.283 39.6137 137.3 39.4384 137.315 39.2673C137.361 38.7415 137.401 38.2157 137.443 37.6899C137.478 37.2358 137.514 36.7797 137.55 36.3193C138.509 36.3193 139.464 36.3193 140.426 36.3193C140.426 37.8144 140.426 39.3075 140.426 40.8047C140.202 40.8047 139.982 40.8047 139.756 40.8047C139.756 39.5123 139.756 38.222 139.756 36.9254C139.23 36.9296 138.708 36.9296 138.178 36.9296Z" fill="#26201E"/>
<path d="M154.262 37.6922C154.044 37.7513 153.834 37.8083 153.621 37.8674C153.604 37.821 153.587 37.7788 153.573 37.7365C153.432 37.3712 153.16 37.1494 152.814 36.9974C152.5 36.858 152.173 36.8475 151.853 36.9362C151.467 37.0417 151.148 37.2635 150.947 37.6225C150.713 38.0406 150.665 38.4904 150.752 38.9592C150.798 39.2042 150.895 39.4238 151.039 39.6244C151.341 40.0447 151.756 40.2263 152.259 40.2284C152.695 40.2284 153.072 40.0784 153.361 39.7427C153.478 39.6075 153.57 39.447 153.619 39.2591C153.834 39.3182 154.046 39.3752 154.264 39.4344C154.213 39.6329 154.149 39.8208 154.029 39.9813C153.937 40.108 153.834 40.2305 153.723 40.3403C153.374 40.6887 152.936 40.8408 152.454 40.8788C152.043 40.9105 151.647 40.8598 151.274 40.6803C151.132 40.6106 150.991 40.5303 150.868 40.4311C150.631 40.2389 150.432 40.0087 150.296 39.7321C150.084 39.3077 150.007 38.8579 150.034 38.3869C150.065 37.8696 150.227 37.405 150.556 36.9995C150.849 36.6384 151.228 36.4293 151.668 36.3068C152.005 36.2119 152.347 36.2013 152.686 36.271C153.122 36.3597 153.52 36.5434 153.824 36.8834C154.027 37.1114 154.188 37.3754 154.262 37.6922Z" fill="#26201E"/>
<path d="M144.758 38.2412C144.758 38.4502 144.758 38.653 144.758 38.8599C144.042 38.8599 143.33 38.8599 142.611 38.8599C142.611 39.3034 142.611 39.7426 142.611 40.1882C143.361 40.1882 144.111 40.1882 144.865 40.1882C144.865 40.3994 144.865 40.6021 144.865 40.807C143.889 40.807 142.915 40.807 141.937 40.807C141.937 39.3139 141.937 37.8188 141.937 36.3216C142.9 36.3216 143.864 36.3216 144.832 36.3216C144.832 36.518 144.832 36.7143 144.832 36.9192C144.092 36.9192 143.355 36.9192 142.611 36.9192C142.611 37.3627 142.611 37.7977 142.611 38.2391C143.328 38.2412 144.042 38.2412 144.758 38.2412Z" fill="#26201E"/>
<path d="M116.446 36.3216C116.67 36.3216 116.893 36.3216 117.119 36.3216C117.119 36.9741 117.119 37.6224 117.119 38.2749C117.312 38.2749 117.496 38.2749 117.697 38.2749C118.112 37.6287 118.533 36.9762 118.954 36.3216C119.227 36.3216 119.494 36.3216 119.773 36.3216C119.283 37.0628 118.797 37.7977 118.309 38.5368C118.824 39.2928 119.34 40.0467 119.857 40.807C119.574 40.807 119.295 40.807 119.008 40.807C118.573 40.1776 118.133 39.5399 117.693 38.9043C117.504 38.9043 117.318 38.9043 117.121 38.9043C117.121 39.5399 117.121 40.1734 117.121 40.809C116.893 40.809 116.673 40.809 116.448 40.809C116.446 39.3139 116.446 37.8209 116.446 36.3216Z" fill="#26201E"/>
<path d="M146.129 36.3193C146.351 36.3193 146.569 36.3193 146.797 36.3193C146.797 36.9697 146.797 37.6202 146.797 38.2748C146.994 38.2748 147.183 38.2748 147.378 38.2748C147.794 37.6265 148.214 36.974 148.634 36.3214C148.907 36.3214 149.175 36.3214 149.453 36.3214C148.963 37.0627 148.477 37.7997 147.989 38.5367C148.507 39.2948 149.02 40.0466 149.537 40.8068C149.255 40.8068 148.978 40.8068 148.689 40.8068C148.253 40.1775 147.815 39.5419 147.373 38.9041C147.187 38.9041 146.998 38.9041 146.803 38.9041C146.803 39.5398 146.803 40.1711 146.803 40.8089C146.575 40.8089 146.355 40.8089 146.131 40.8089C146.129 39.3137 146.129 37.8208 146.129 36.3193Z" fill="#26201E"/>
<path d="M92.0357 36.3991C91.9897 36.473 91.9518 36.5406 91.9098 36.6039C91.6355 37.0178 91.359 37.4296 91.0842 37.8414C90.9231 38.0864 90.7616 38.3314 90.5982 38.5742C90.5731 38.6101 90.5754 38.6375 90.6005 38.6735C90.7155 38.8361 90.8287 38.9986 90.9418 39.1612C91.1198 39.421 91.2983 39.6808 91.4762 39.9405C91.6291 40.1622 91.7797 40.384 91.9308 40.6078C91.9938 40.7007 92.0545 40.7979 92.1193 40.8971C91.8386 40.8971 91.562 40.8971 91.2773 40.8971C90.8414 40.2657 90.4015 39.628 89.9616 38.9923C89.7708 38.9923 89.5842 38.9923 89.3916 38.9923C89.3916 39.628 89.3916 40.2594 89.3916 40.8971C89.1634 40.8971 88.9435 40.8971 88.7171 40.8971C88.7171 40.2657 88.7171 39.6343 88.7171 38.9944C88.5222 38.9944 88.3356 38.9944 88.1389 38.9944C87.7031 39.6237 87.2631 40.2615 86.8232 40.8992C86.5444 40.8992 86.266 40.8992 85.9789 40.8992C85.9894 40.8802 85.9954 40.8654 86.004 40.8528C86.1756 40.6015 86.3477 40.3502 86.5193 40.101C86.6954 39.8454 86.8693 39.5878 87.045 39.3323C87.1938 39.1148 87.3407 38.8973 87.4895 38.6798C87.5018 38.6629 87.5123 38.6439 87.5251 38.6228C87.0345 37.8836 86.5467 37.1446 86.0542 36.3991C86.3326 36.3991 86.601 36.3991 86.8734 36.3991C87.2946 37.0516 87.7177 37.7084 88.1407 38.3672C88.3315 38.3672 88.5181 38.3672 88.7107 38.3672C88.7107 37.7126 88.7107 37.0579 88.7107 36.3991C88.9389 36.3991 89.1589 36.3991 89.3875 36.3991C89.3875 37.0538 89.3875 37.7084 89.3875 38.3651C89.5824 38.3651 89.7686 38.3651 89.9634 38.3651C90.3824 37.7147 90.8036 37.0579 91.2266 36.3991C91.4909 36.3991 91.7592 36.3991 92.0357 36.3991Z" fill="#26201E"/>
<path d="M91.9874 36.3991C91.9413 36.473 91.9034 36.5406 91.8614 36.6039C91.5872 37.0178 91.3106 37.4296 91.0363 37.8414C90.8748 38.0864 90.7137 38.3314 90.5503 38.5742C90.5252 38.6101 90.5271 38.6375 90.5522 38.6735C90.6676 38.8361 90.7808 38.9986 90.894 39.1612C91.0719 39.421 91.2499 39.6808 91.4279 39.9405C91.5808 40.1622 91.7318 40.384 91.8824 40.6078C91.9454 40.7007 92.0061 40.7979 92.0714 40.8971C91.7903 40.8971 91.5137 40.8971 91.2289 40.8971C90.7931 40.2657 90.3532 39.628 89.9132 38.9923C89.7225 38.9923 89.5363 38.9923 89.3433 38.9923C89.3433 39.628 89.3433 40.2594 89.3433 40.8971C89.1151 40.8971 88.8951 40.8971 88.6688 40.8971C88.6688 40.2657 88.6688 39.6343 88.6688 38.9944C88.4739 38.9944 88.2877 38.9944 88.0906 38.9944C87.6547 39.6237 87.2148 40.2615 86.7749 40.8992C86.4965 40.8992 86.2177 40.8992 85.9306 40.8992C85.9411 40.8802 85.9475 40.8654 85.9557 40.8528C86.1277 40.6015 86.2993 40.3502 86.4709 40.101C86.6471 39.8454 86.821 39.5878 86.9971 39.3323C87.1459 39.1148 87.2924 38.8973 87.4412 38.6798C87.4539 38.6629 87.464 38.6439 87.4767 38.6228C86.9866 37.8836 86.4983 37.1446 86.0059 36.3991C86.2847 36.3991 86.5526 36.3991 86.8251 36.3991C87.2463 37.0516 87.6693 37.7084 88.0928 38.3672C88.2831 38.3672 88.4698 38.3672 88.6624 38.3672C88.6624 37.7126 88.6624 37.0579 88.6624 36.3991C88.891 36.3991 89.111 36.3991 89.3391 36.3991C89.3391 37.0538 89.3391 37.7084 89.3391 38.3651C89.534 38.3651 89.7207 38.3651 89.9155 38.3651C90.3345 37.7147 90.7557 37.0579 91.1787 36.3991C91.4407 36.3991 91.7108 36.3991 91.9874 36.3991Z" fill="#26201E"/>
<path d="M96.6888 40.8992C96.4624 40.8992 96.2425 40.8992 96.0161 40.8992C96.0161 39.7969 96.0161 38.6988 96.0161 37.6007C96.0097 37.5986 96.0056 37.5965 95.9992 37.5943C95.2284 38.6967 94.4595 39.7969 93.6887 40.8992C93.4746 40.8992 93.2633 40.8992 93.0493 40.8992C93.0493 39.3999 93.0493 37.9026 93.0493 36.4012C93.2693 36.4012 93.4892 36.4012 93.7156 36.4012C93.7156 37.4972 93.7156 38.5953 93.7156 39.6934C93.722 39.6955 93.7284 39.6998 93.7325 39.7019C94.5033 38.6017 95.2763 37.5014 96.0494 36.3991C96.2589 36.3991 96.4729 36.3991 96.6888 36.3991C96.6888 37.8984 96.6888 39.3957 96.6888 40.8992Z" fill="#26201E"/>
<path d="M96.6888 40.8992C96.4624 40.8992 96.2425 40.8992 96.0161 40.8992C96.0161 39.7969 96.0161 38.6988 96.0161 37.6007C96.0097 37.5986 96.0056 37.5965 95.9992 37.5943C95.2284 38.6967 94.4595 39.7969 93.6887 40.8992C93.4746 40.8992 93.2633 40.8992 93.0493 40.8992C93.0493 39.3999 93.0493 37.9026 93.0493 36.4012C93.2693 36.4012 93.4892 36.4012 93.7156 36.4012C93.7156 37.4972 93.7156 38.5953 93.7156 39.6934C93.722 39.6955 93.7284 39.6998 93.7325 39.7019C94.5033 38.6017 95.2763 37.5014 96.0494 36.3991C96.2589 36.3991 96.4729 36.3991 96.6888 36.3991C96.6888 37.8984 96.6888 39.3957 96.6888 40.8992Z" fill="#26201E"/>
<path d="M108.951 36.3993C108.951 37.4995 108.951 38.5955 108.951 39.7062C108.974 39.6767 108.989 39.6598 108.999 39.6429C109.231 39.3135 109.464 38.984 109.697 38.6546C109.856 38.4286 110.013 38.2027 110.172 37.9767C110.333 37.7465 110.495 37.5185 110.654 37.2883C110.809 37.0666 110.966 36.8448 111.121 36.621C111.174 36.5471 111.222 36.4711 111.27 36.395C111.486 36.395 111.698 36.395 111.911 36.395C111.911 37.8965 111.911 39.3937 111.911 40.8952C111.689 40.8952 111.469 40.8952 111.238 40.8952C111.238 39.7929 111.238 38.6947 111.238 37.5945C111.233 37.5924 111.228 37.5903 111.222 37.5882C110.453 38.6905 109.682 39.7929 108.913 40.8952C108.697 40.8952 108.486 40.8952 108.27 40.8952C108.27 39.3937 108.27 37.8965 108.27 36.395C108.498 36.3993 108.718 36.3993 108.951 36.3993Z" fill="#26201E"/>
<path d="M108.951 36.3993C108.951 37.4995 108.951 38.5955 108.951 39.7062C108.974 39.6767 108.989 39.6598 108.999 39.6429C109.231 39.3135 109.464 38.984 109.697 38.6546C109.856 38.4286 110.013 38.2027 110.172 37.9767C110.333 37.7465 110.495 37.5185 110.654 37.2883C110.809 37.0666 110.966 36.8448 111.121 36.621C111.174 36.5471 111.222 36.4711 111.27 36.395C111.486 36.395 111.698 36.395 111.911 36.395C111.911 37.8965 111.911 39.3937 111.911 40.8952C111.689 40.8952 111.469 40.8952 111.238 40.8952C111.238 39.7929 111.238 38.6947 111.238 37.5945C111.233 37.5924 111.228 37.5903 111.222 37.5882C110.453 38.6905 109.682 39.7929 108.913 40.8952C108.697 40.8952 108.486 40.8952 108.27 40.8952C108.27 39.3937 108.27 37.8965 108.27 36.395C108.498 36.3993 108.718 36.3993 108.951 36.3993Z" fill="#26201E"/>
<path d="M107.149 38.5003C107.145 39.1127 107.042 39.5456 106.797 39.9448C106.634 40.213 106.424 40.4284 106.166 40.5994C105.452 41.0703 104.698 41.0978 103.931 40.7599C103.573 40.6015 103.282 40.3397 103.066 40.0081C102.741 39.5076 102.637 38.9544 102.691 38.3673C102.729 37.9724 102.856 37.6134 103.076 37.2797C103.263 36.9968 103.51 36.7898 103.795 36.6166C104.172 36.3844 104.587 36.3084 105.021 36.3231C105.326 36.3316 105.624 36.3928 105.896 36.5364C106.217 36.7033 106.504 36.9165 106.715 37.2206C107.011 37.6472 107.155 38.1244 107.149 38.5003ZM103.359 38.6461C103.361 38.7052 103.363 38.7643 103.368 38.8256C103.369 38.8614 103.376 38.8994 103.38 38.9354C103.439 39.3809 103.652 39.7441 104 40.0187C104.576 40.4727 105.435 40.3967 105.9 39.9511C106.049 39.8096 106.183 39.6597 106.276 39.476C106.456 39.1212 106.5 38.7432 106.445 38.3525C106.378 37.8689 106.139 37.4888 105.741 37.2164C105.249 36.8764 104.415 36.8532 103.86 37.4001C103.512 37.7422 103.365 38.1625 103.359 38.6461Z" fill="#26201E"/>
<path d="M107.149 38.5003C107.145 39.1127 107.042 39.5456 106.797 39.9448C106.634 40.213 106.424 40.4284 106.166 40.5994C105.452 41.0703 104.698 41.0978 103.931 40.7599C103.573 40.6015 103.282 40.3397 103.066 40.0081C102.741 39.5076 102.637 38.9544 102.691 38.3673C102.729 37.9724 102.856 37.6134 103.076 37.2797C103.263 36.9968 103.51 36.7898 103.795 36.6166C104.172 36.3844 104.587 36.3084 105.021 36.3231C105.326 36.3316 105.624 36.3928 105.896 36.5364C106.217 36.7033 106.504 36.9165 106.715 37.2206C107.011 37.6472 107.155 38.1244 107.149 38.5003ZM103.359 38.6461C103.361 38.7052 103.363 38.7643 103.368 38.8256C103.369 38.8614 103.376 38.8994 103.38 38.9354C103.439 39.3809 103.652 39.7441 104 40.0187C104.576 40.4727 105.435 40.3967 105.9 39.9511C106.049 39.8096 106.183 39.6597 106.276 39.476C106.456 39.1212 106.5 38.7432 106.445 38.3525C106.378 37.8689 106.139 37.4888 105.741 37.2164C105.249 36.8764 104.415 36.8532 103.86 37.4001C103.512 37.7422 103.365 38.1625 103.359 38.6461Z" fill="#26201E"/>
<path d="M101.558 36.3991C101.558 37.9026 101.558 39.3978 101.558 40.8992C101.335 40.8992 101.115 40.8992 100.885 40.8992C100.885 39.6068 100.885 38.3144 100.885 37.0199C100.355 37.0199 99.8331 37.0199 99.3051 37.0199C99.2969 37.1213 99.2887 37.2227 99.28 37.3219C99.2234 38.0589 99.1668 38.7959 99.1084 39.535C99.0851 39.8074 99.0413 40.0756 98.9158 40.3227C98.7164 40.7113 98.4002 40.9267 97.9666 40.9563C97.8616 40.9647 97.7571 40.9584 97.6481 40.9584C97.6481 40.7472 97.6481 40.5339 97.6481 40.3058C97.711 40.3058 97.774 40.3079 97.8365 40.3058C98.0506 40.2974 98.2117 40.2002 98.3103 40.0102C98.3773 39.8835 98.4148 39.7462 98.4253 39.6026C98.4695 39.043 98.5133 38.4813 98.5576 37.9217C98.595 37.4317 98.6347 36.9439 98.6749 36.454C98.6767 36.4371 98.6808 36.4202 98.6831 36.4012C99.6428 36.3991 100.596 36.3991 101.558 36.3991Z" fill="#26201E"/>
<path d="M101.558 36.3991C101.558 37.9026 101.558 39.3978 101.558 40.8992C101.335 40.8992 101.115 40.8992 100.885 40.8992C100.885 39.6068 100.885 38.3144 100.885 37.0199C100.355 37.0199 99.8331 37.0199 99.3051 37.0199C99.2969 37.1213 99.2887 37.2227 99.28 37.3219C99.2234 38.0589 99.1668 38.7959 99.1084 39.535C99.0851 39.8074 99.0413 40.0756 98.9158 40.3227C98.7164 40.7113 98.4002 40.9267 97.9666 40.9563C97.8616 40.9647 97.7571 40.9584 97.6481 40.9584C97.6481 40.7472 97.6481 40.5339 97.6481 40.3058C97.711 40.3058 97.774 40.3079 97.8365 40.3058C98.0506 40.2974 98.2117 40.2002 98.3103 40.0102C98.3773 39.8835 98.4148 39.7462 98.4253 39.6026C98.4695 39.043 98.5133 38.4813 98.5576 37.9217C98.595 37.4317 98.6347 36.9439 98.6749 36.454C98.6767 36.4371 98.6808 36.4202 98.6831 36.4012C99.6428 36.3991 100.596 36.3991 101.558 36.3991Z" fill="#26201E"/>
<path d="M109.217 35.0202C109.376 35.0202 109.527 35.0202 109.686 35.0202C109.697 35.1933 109.734 35.3538 109.885 35.4636C109.975 35.5291 110.076 35.546 110.185 35.5397C110.419 35.527 110.541 35.375 110.598 35.0223C110.606 35.0223 110.616 35.0202 110.627 35.0202C110.773 35.0202 110.918 35.0202 111.063 35.0202C111.115 35.2905 110.935 35.6579 110.673 35.8247C110.392 36.0022 109.904 36.019 109.697 35.8881C109.374 35.6833 109.209 35.4066 109.217 35.0202Z" fill="#26201E"/>
<path d="M109.217 35.0202C109.376 35.0202 109.527 35.0202 109.686 35.0202C109.697 35.1933 109.734 35.3538 109.885 35.4636C109.975 35.5291 110.076 35.546 110.185 35.5397C110.419 35.527 110.541 35.375 110.598 35.0223C110.606 35.0223 110.616 35.0202 110.627 35.0202C110.773 35.0202 110.918 35.0202 111.063 35.0202C111.115 35.2905 110.935 35.6579 110.673 35.8247C110.392 36.0022 109.904 36.019 109.697 35.8881C109.374 35.6833 109.209 35.4066 109.217 35.0202Z" fill="#26201E"/>
</g>
<defs>
<clipPath id="clip0_403_442">
<rect width="183" height="46" fill="white"/>
</clipPath>
</defs>
</svg>
