<svg width="146" height="148" viewBox="0 0 146 148" fill="none" xmlns="http://www.w3.org/2000/svg">
<g filter="url(#filter0_d_1316_2)">
<mask id="path-1-inside-1_1316_2" fill="white">
<path fill-rule="evenodd" clip-rule="evenodd" d="M57 26C42.0883 26 30 38.0883 30 53V77.2816C30 92.1933 42.0883 104.282 57 104.282H62.4C62.898 104.282 63.3781 104.467 63.7463 104.803L72.2322 112.527C72.9954 113.222 74.1617 113.222 74.9248 112.527L83.4107 104.803C83.779 104.467 84.2591 104.282 84.757 104.282H89C103.912 104.282 116 92.1933 116 77.2816V53C116 38.0883 103.912 26 89 26H57Z"/>
</mask>
<path fill-rule="evenodd" clip-rule="evenodd" d="M57 26C42.0883 26 30 38.0883 30 53V77.2816C30 92.1933 42.0883 104.282 57 104.282H62.4C62.898 104.282 63.3781 104.467 63.7463 104.803L72.2322 112.527C72.9954 113.222 74.1617 113.222 74.9248 112.527L83.4107 104.803C83.779 104.467 84.2591 104.282 84.757 104.282H89C103.912 104.282 116 92.1933 116 77.2816V53C116 38.0883 103.912 26 89 26H57Z" fill="white" fill-opacity="0.9" shape-rendering="crispEdges"/>
<path d="M83.4107 104.803L79.3719 100.366L83.4107 104.803ZM72.2322 112.527L76.2711 108.09L72.2322 112.527ZM74.9248 112.527L78.9637 116.964L74.9248 112.527ZM63.7463 104.803L67.7852 100.366L63.7463 104.803ZM36 53C36 41.402 45.402 32 57 32V20C38.7746 20 24 34.7746 24 53H36ZM36 77.2816V53H24V77.2816H36ZM57 98.2816C45.402 98.2816 36 88.8796 36 77.2816H24C24 95.507 38.7746 110.282 57 110.282V98.2816ZM62.4 98.2816H57V110.282H62.4V98.2816ZM76.2711 108.09L67.7852 100.366L59.7075 109.24L68.1934 116.964L76.2711 108.09ZM79.3719 100.366L70.886 108.09L78.9637 116.964L87.4496 109.24L79.3719 100.366ZM89 98.2816H84.757V110.282H89V98.2816ZM110 77.2816C110 88.8796 100.598 98.2816 89 98.2816V110.282C107.225 110.282 122 95.507 122 77.2816H110ZM110 53V77.2816H122V53H110ZM89 32C100.598 32 110 41.402 110 53H122C122 34.7746 107.225 20 89 20V32ZM57 32H89V20H57V32ZM87.4496 109.24C86.7131 109.91 85.753 110.282 84.757 110.282V98.2816C82.7651 98.2816 80.8449 99.0247 79.3719 100.366L87.4496 109.24ZM68.1934 116.964C71.2459 119.743 75.9112 119.743 78.9637 116.964L70.886 108.09C72.4122 106.701 74.7449 106.701 76.2711 108.09L68.1934 116.964ZM62.4 110.282C61.4041 110.282 60.444 109.91 59.7075 109.24L67.7852 100.366C66.3122 99.0247 64.3919 98.2816 62.4 98.2816V110.282Z" fill="#4DA1C8" fill-opacity="0.6" mask="url(#path-1-inside-1_1316_2)"/>
</g>
<path opacity="0.5" d="M42 66.8628C43.0799 69.3969 45.5936 71.1746 48.523 71.1746C47.4431 68.6394 44.9295 66.8628 42 66.8628Z" fill="#12B36A"/>
<path opacity="0.5" d="M48.5236 71.1746C50.6756 71.1746 52.5286 69.8956 53.3646 68.0571C51.2131 68.0571 49.3602 69.3361 48.5236 71.1746Z" fill="#12B36A"/>
<path opacity="0.5" fill-rule="evenodd" clip-rule="evenodd" d="M48.5236 67.6308C51.4592 67.6308 53.839 65.2516 53.839 62.3154C53.839 59.3804 51.4592 57 48.5236 57C45.5875 57 43.2082 59.3804 43.2082 62.3154C43.2082 65.2516 45.5875 67.6308 48.5236 67.6308ZM48.5236 64.9735C49.9911 64.9735 51.181 63.7836 51.181 62.3155C51.181 60.8475 49.9911 59.6581 48.5236 59.6581C47.0555 59.6581 45.8656 60.8475 45.8656 62.3155C45.8656 63.7836 47.0555 64.9735 48.5236 64.9735Z" fill="#FEBE10"/>
<path d="M82.7224 62.3155H84.9458V70.9337H82.7224V67.5773H78.8402V70.9337H76.6168V62.3155H78.8402V65.4916H82.7224V62.3155ZM85.993 64.4532H88.7611V70.9337H90.9844V64.4532H93.719V62.3155H85.993V64.4532ZM104.5 69.0592V70.8911C104.121 71.0808 103.647 71.1753 103.094 71.1753C101.939 71.1753 101.358 70.6727 101.125 69.8632L101.088 69.9174C100.415 70.7617 99.485 71.1753 98.2785 71.1753C97.123 71.1753 96.1405 70.7446 95.3135 69.8654C94.5035 68.9862 94.09 67.9002 94.09 66.6246C94.09 65.3501 94.5035 64.2812 95.3135 63.4021C96.1405 62.5234 97.123 62.0745 98.2785 62.0745C99.4315 62.0745 100.332 62.4538 100.997 63.2262V62.3161H103.22V68.4123C103.22 68.9331 103.457 69.2013 103.931 69.2013C104.153 69.2008 104.342 69.1537 104.5 69.0592ZM101.088 66.624C101.088 65.9185 100.864 65.3324 100.398 64.8839C99.9505 64.4189 99.3815 64.1944 98.692 64.1944C98.0025 64.1944 97.434 64.4184 96.9855 64.8839C96.5375 65.3324 96.3135 65.9185 96.3135 66.624C96.3135 67.3313 96.5375 67.9174 96.9855 68.383C97.434 68.8308 98.0025 69.0548 98.692 69.0548C99.3815 69.0548 99.9505 68.8308 100.398 68.383C100.864 67.9174 101.088 67.3313 101.088 66.624ZM58.2996 62.3155L58.2332 65.5536C58.2177 66.8646 58.1702 67.5121 57.9805 68.2536C57.8069 68.9646 57.4751 69.1654 56.9548 69.1654C56.7806 69.1654 56.623 69.1493 56.4964 69.1018V70.9337C56.67 71.0282 56.9548 71.0752 57.3336 71.0752C58.8967 71.0282 59.6548 70.2906 60.0341 68.9641C60.3023 68.0164 60.3499 67.2898 60.3974 66.2005L60.4472 64.4526H63.208V70.9331H65.4314V62.315H58.2996V62.3155ZM69.0078 67.2063C69.2472 68.6771 70.4134 69.1587 71.5967 69.1587C72.3807 69.1587 73.2024 68.8524 73.7078 68.394L75.0791 69.7736C74.2602 70.6804 73.12 71.1753 71.5618 71.1753C69.3805 71.1753 66.749 69.8875 66.749 66.6246C66.749 63.3623 69.2832 62.0745 71.4352 62.0745C74.1573 62.0745 75.2837 63.3534 75.2837 64.7872C75.2842 67.1311 72.305 68.2138 69.0078 67.2063ZM72.8701 65.041C72.8701 64.3725 72.2088 64.0739 71.4678 64.0739C70.336 64.0739 69.3551 64.5516 69.057 65.7814C71.3633 66.4477 72.8701 65.9506 72.8701 65.041Z" fill="#BBC7CD"/>
<path d="M62.01 55V56.24H59.88V60H58.59V55H62.01ZM66.3113 55H67.2713V60H66.0113V57.16L63.6613 60H62.7013V55H63.9613V57.84L66.3113 55ZM73.0233 55V60H71.7333V56.21H69.7433V60H68.4533V55H73.0233ZM75.2952 58.03C75.4686 58.6567 75.9386 58.97 76.7052 58.97C77.1986 58.97 77.5719 58.8033 77.8252 58.47L78.8652 59.07C78.3719 59.7833 77.6452 60.14 76.6852 60.14C75.8586 60.14 75.1952 59.89 74.6952 59.39C74.1952 58.89 73.9452 58.26 73.9452 57.5C73.9452 56.7467 74.1919 56.12 74.6852 55.62C75.1786 55.1133 75.8119 54.86 76.5852 54.86C77.3186 54.86 77.9219 55.1133 78.3952 55.62C78.8752 56.1267 79.1152 56.7533 79.1152 57.5C79.1152 57.6667 79.0986 57.8433 79.0652 58.03H75.2952ZM75.2752 57.03H77.8252C77.7519 56.69 77.5986 56.4367 77.3652 56.27C77.1386 56.1033 76.8786 56.02 76.5852 56.02C76.2386 56.02 75.9519 56.11 75.7252 56.29C75.4986 56.4633 75.3486 56.71 75.2752 57.03ZM82.9258 54.86C83.5991 54.86 84.1724 55.1167 84.6458 55.63C85.1258 56.1367 85.3658 56.76 85.3658 57.5C85.3658 58.24 85.1258 58.8667 84.6458 59.38C84.1724 59.8867 83.5991 60.14 82.9258 60.14C82.2258 60.14 81.6858 59.8967 81.3058 59.41V62H80.0158V55H81.3058V55.59C81.6858 55.1033 82.2258 54.86 82.9258 54.86ZM81.6958 58.52C81.9558 58.78 82.2858 58.91 82.6858 58.91C83.0858 58.91 83.4158 58.78 83.6758 58.52C83.9424 58.2533 84.0758 57.9133 84.0758 57.5C84.0758 57.0867 83.9424 56.75 83.6758 56.49C83.4158 56.2233 83.0858 56.09 82.6858 56.09C82.2858 56.09 81.9558 56.2233 81.6958 56.49C81.4358 56.75 81.3058 57.0867 81.3058 57.5C81.3058 57.9133 81.4358 58.2533 81.6958 58.52Z" fill="#BBC7CD"/>
<defs>
<filter id="filter0_d_1316_2" x="0" y="0" width="146" height="147.048" filterUnits="userSpaceOnUse" color-interpolation-filters="sRGB">
<feFlood flood-opacity="0" result="BackgroundImageFix"/>
<feColorMatrix in="SourceAlpha" type="matrix" values="0 0 0 0 0 0 0 0 0 0 0 0 0 0 0 0 0 0 127 0" result="hardAlpha"/>
<feOffset dy="4"/>
<feGaussianBlur stdDeviation="15"/>
<feComposite in2="hardAlpha" operator="out"/>
<feColorMatrix type="matrix" values="0 0 0 0 0 0 0 0 0 0 0 0 0 0 0 0 0 0 0.2 0"/>
<feBlend mode="normal" in2="BackgroundImageFix" result="effect1_dropShadow_1316_2"/>
<feBlend mode="normal" in="SourceGraphic" in2="effect1_dropShadow_1316_2" result="shape"/>
</filter>
</defs>
</svg>
