<svg width="401" height="100" viewBox="0 0 401 100" fill="none" xmlns="http://www.w3.org/2000/svg">
<g clip-path="url(#clip0_403_391)">
<path d="M161.46 48.4984L156.915 47.1946C156.796 47.1579 156.672 47.1762 156.562 47.2359C156.451 47.2956 156.373 47.3966 156.341 47.5114C156.245 47.8465 156.139 48.1816 156.139 48.1816C155.556 49.8527 154.454 51.4961 152.953 52.9331C151.043 54.7602 148.716 55.9492 145.838 56.5689C144.208 56.9178 140.756 56.95 139.245 56.6286C133.658 55.4396 129.586 51.8129 127.787 46.4234C126.492 42.5442 126.465 37.8065 127.713 34.0651C129.329 29.2356 132.492 25.9624 137.097 24.3464C138.396 23.9516 140.035 23.5522 142.312 23.5476C142.335 23.5476 142.358 23.5476 142.381 23.5476C144.662 23.5476 145.801 23.7588 147.1 24.149C151.264 25.3288 154.785 28.4597 156.075 32.1232C156.203 32.4858 156.314 32.7934 156.373 32.9541C156.456 33.1836 156.704 33.3076 156.943 33.2387L161.46 31.889C161.703 31.8156 161.841 31.5631 161.772 31.3198C161.621 30.7872 161.221 29.4651 160.822 28.6204C159.187 25.1728 155.978 22.0189 152.232 20.1826C148.647 18.4243 143.974 17.6623 139.746 18.1397C132.492 18.9569 126.515 23.0931 123.347 29.4789C120.685 34.8547 120.253 41.9336 122.227 47.9613C124.839 55.9354 131.638 61.4122 139.975 62.2569C140.838 62.3441 141.692 62.3854 142.537 62.3854C150.672 62.3854 157.686 58.3777 160.831 51.7532C161.363 50.6744 161.699 49.412 161.786 49.0539C161.841 48.8106 161.699 48.5672 161.46 48.4984Z" fill="#26201E"/>
<path d="M192.383 31.5308H188.619C188.476 31.5308 188.343 31.595 188.256 31.7098L173.896 50.0177C173.556 50.4539 173.065 50.4814 172.726 50.3621C172.381 50.2427 172.019 49.9213 172.014 49.3705L171.964 31.9898C171.964 31.7373 171.752 31.5308 171.5 31.5308H166.826C166.569 31.5308 166.363 31.7374 166.363 31.9944V61.1962C166.363 61.4533 166.569 61.6599 166.826 61.6599H170.568C170.71 61.6599 170.843 61.5956 170.931 61.4855L185.318 43.3015C185.658 42.8699 186.144 42.8424 186.489 42.9617C186.828 43.0811 187.196 43.4025 187.196 43.9533L187.246 61.2054C187.246 61.4579 187.457 61.6645 187.71 61.6645H192.383C192.64 61.6645 192.847 61.4579 192.847 61.2008V31.999C192.847 31.7419 192.636 31.5308 192.383 31.5308Z" fill="#26201E"/>
<path d="M233.351 31.5264L228.366 31.5355C228.191 31.5355 228.03 31.6365 227.957 31.7926L217.499 52.5979C217.316 52.9606 216.967 53.1764 216.563 53.1764C216.159 53.1764 215.805 52.9606 215.626 52.5979L205.09 31.7834C205.012 31.6274 204.852 31.5264 204.677 31.5264H199.724C199.467 31.5264 199.26 31.7329 199.26 31.99V61.1918C199.26 61.4489 199.467 61.6555 199.724 61.6555H204.154C204.411 61.6555 204.618 61.4489 204.618 61.1918L204.663 45.9735C204.663 45.3629 205.1 45.0416 205.476 44.9543C205.848 44.8671 206.38 44.9589 206.656 45.5052L214.777 61.6509L218.33 61.6555L223.743 50.78L226.46 45.3491C226.736 44.7982 227.268 44.7064 227.645 44.7982C228.017 44.8855 228.453 45.2068 228.453 45.822L228.457 61.1964C228.457 61.4535 228.664 61.6601 228.921 61.6601H233.351C233.608 61.6601 233.815 61.4535 233.815 61.1964V31.99C233.815 31.7375 233.608 31.5264 233.351 31.5264Z" fill="#26201E"/>
<path d="M337.57 31.5308H333.016C332.759 31.5308 332.553 31.7374 332.553 31.9944V43.0444C332.553 43.6228 332.08 44.0957 331.501 44.0957H318.56C317.982 44.0957 317.513 43.6274 317.509 43.049L317.454 32.0495C317.454 31.8016 317.247 31.595 316.995 31.5904L312.381 31.5308C312.257 31.5445 312.138 31.5767 312.05 31.6639C311.963 31.7511 311.913 31.8705 311.913 31.9944V61.1962C311.913 61.4533 312.119 61.6599 312.376 61.6599H317.05C317.307 61.6599 317.513 61.4533 317.513 61.1962V50.1463C317.513 49.5679 317.986 49.095 318.565 49.095H331.501C332.08 49.095 332.553 49.5679 332.553 50.1463V61.1962C332.553 61.4533 332.759 61.6599 333.016 61.6599H337.57C337.828 61.6599 338.034 61.4533 338.034 61.1962V31.9944C338.034 31.7419 337.828 31.5308 337.57 31.5308Z" fill="#26201E"/>
<path d="M369.793 31.5308H366.038C365.895 31.5308 365.762 31.595 365.675 31.7098L351.306 50.0269C350.966 50.463 350.48 50.4906 350.135 50.3712C349.791 50.2519 349.428 49.9305 349.424 49.3796L349.373 31.9898C349.373 31.7373 349.162 31.5308 348.91 31.5308H344.236C343.979 31.5308 343.773 31.7374 343.773 31.9944V61.1962C343.773 61.4533 343.979 61.6599 344.236 61.6599H347.987C348.129 61.6599 348.262 61.5956 348.35 61.4855L362.728 43.3106C363.068 42.8791 363.554 42.8516 363.898 42.9709C364.238 43.0903 364.605 43.4116 364.605 43.9625L364.656 61.2008C364.656 61.4533 364.867 61.6599 365.12 61.6599H369.793C370.05 61.6599 370.257 61.4533 370.257 61.1962V31.9944C370.257 31.7419 370.05 31.5308 369.793 31.5308Z" fill="#26201E"/>
<path d="M292.595 30.8237C292.512 30.8237 292.43 30.8237 292.347 30.8237C291.773 30.8329 291.057 30.8605 290.85 30.888L289.643 31.0671C286.117 31.5812 282.546 33.6838 280.328 36.5438C278.699 38.6464 277.822 40.5929 277.289 43.2601C276.927 45.101 276.922 48.085 277.285 49.9167C277.941 53.2083 279.236 55.6873 281.49 57.9413C284.276 60.7325 287.527 62.1281 291.723 62.3485C292.016 62.3623 292.306 62.3714 292.595 62.3714C300.326 62.3714 306.656 57.0186 307.809 49.3658C308.047 47.7912 308.047 45.4132 307.809 43.8385C306.656 36.1398 300.418 30.8237 292.595 30.8237ZM296.658 56.3759C294.89 57.1839 292.728 57.4501 290.726 57.1012C288.61 56.7294 287.182 55.9765 285.64 54.4156C283.551 52.2993 282.619 49.8892 282.619 46.5976C282.619 43.306 283.551 40.8959 285.64 38.7795C287.123 37.2783 288.592 36.4795 290.557 36.1077C291.016 36.0205 291.672 35.9792 292.361 35.9792C293.357 35.9792 294.422 36.0664 295.046 36.2271C297.851 36.9524 300.027 38.7933 301.345 41.5477C302.176 43.2831 302.332 44.0864 302.332 46.593C302.332 48.4981 302.3 48.9021 302.079 49.7055C301.226 52.7997 299.302 55.1685 296.658 56.3759Z" fill="#26201E"/>
<path d="M400.565 31.6688C400.478 31.5816 400.363 31.5356 400.239 31.5356C400.239 31.5356 400.239 31.5356 400.234 31.5356L392.439 31.5494C388.055 31.5586 384.098 31.6137 383.62 31.6734C380.88 32.0177 378.456 33.2434 376.964 35.0384C375.605 36.6727 375.068 38.2198 374.981 40.7493C374.903 42.9161 375.105 43.9674 375.908 45.643C376.372 46.6071 376.661 47.0111 377.441 47.7869C378.593 48.93 379.576 49.5222 381.206 50.0548L381.986 50.3118L379.861 53.5345C377.611 56.9455 375.518 60.1131 374.962 60.9486C374.866 61.0909 374.861 61.2746 374.939 61.4261C375.022 61.5776 375.173 61.6694 375.343 61.6694C375.688 61.6694 376.431 61.6648 377.804 61.6648H380.398C380.554 61.6648 380.696 61.5867 380.783 61.4582L387.376 51.5054C387.573 51.2116 387.899 51.0326 388.252 51.0326H394.17C394.748 51.0326 395.221 51.5054 395.221 52.0839V61.2011C395.221 61.4582 395.428 61.6648 395.685 61.6648H400.239C400.496 61.6648 400.703 61.4582 400.703 61.2011V31.9993C400.703 31.8708 400.652 31.756 400.565 31.6688ZM395.221 37.1042V45.464C395.221 45.7486 395.111 46.0103 394.909 46.2123C394.712 46.4097 394.45 46.5153 394.17 46.5153C394.165 46.5153 394.165 46.5153 394.161 46.5153L390.148 46.4786C385.746 46.4372 384.69 46.3959 384.19 46.249C381.954 45.5788 380.714 44.2429 380.398 42.1678C380.141 40.4968 380.59 38.8533 381.596 37.7791C382.395 36.9206 383.519 36.3973 385.034 36.1677C385.314 36.1264 387.605 36.0759 390.566 36.0667L394.161 36.0575C394.161 36.0575 394.161 36.0575 394.165 36.0575C394.445 36.0575 394.712 36.1677 394.909 36.3651C395.111 36.5579 395.221 36.8242 395.221 37.1042Z" fill="#26201E"/>
<path d="M264.623 33.1099C263.324 32.5498 261.176 31.9668 259.73 31.7786C259.17 31.7051 258.531 31.6179 258.32 31.5858L258.205 31.5674V19.1907C258.205 18.9336 257.999 18.7271 257.742 18.7271H254.156C253.899 18.7271 253.693 18.9336 253.693 19.1907V31.5582L253.404 31.5949C250.814 31.9255 249.13 32.3249 247.38 33.0227C242.5 34.9783 239.2 39.0228 238.323 44.1185C238.066 45.6151 238.061 48.2961 238.314 49.7468C239.236 55.0537 242.886 59.1854 248.326 61.0814C249.777 61.5864 251.599 61.9949 252.963 62.1143L253.633 62.174L253.693 73.279C253.693 73.5315 253.904 73.7381 254.156 73.7381H257.737C257.99 73.7381 258.201 73.5315 258.201 73.279L258.261 62.174L259.16 62.0592C261.616 61.7516 264.192 60.9436 266.235 59.8464C269.981 57.8311 272.611 54.5717 273.635 50.6649C274.021 49.1959 274.122 46.0053 273.837 44.3389C272.969 39.2202 269.783 35.3318 264.623 33.1099ZM268.076 49.352C267.199 52.6757 264.027 55.3613 259.592 56.5365C259.271 56.6192 258.935 56.5549 258.674 56.3529C258.412 56.1555 258.261 55.8525 258.261 55.5266L258.201 46.8776V38.0771C258.201 37.7649 258.339 37.4665 258.582 37.2645C258.77 37.1084 259.009 37.0212 259.252 37.0212C259.316 37.0212 259.381 37.0258 259.445 37.0396C259.734 37.0947 259.991 37.1452 260.161 37.1865C264.454 38.2607 267.456 41.1667 268.19 44.9632C268.42 46.166 268.369 48.2548 268.076 49.352ZM253.752 55.6459C253.752 55.9673 253.615 56.2657 253.367 56.4677C253.123 56.6697 252.807 56.7523 252.495 56.6834C251.2 56.4218 249.419 55.8754 248.349 55.2419C247.192 54.5579 245.636 52.9833 245.021 51.8677C243.428 48.9847 243.377 44.9908 244.901 42.1583C246.224 39.7022 248.363 38.0449 251.26 37.237C251.397 37.2002 251.815 37.1084 252.435 36.9845C252.504 36.9707 252.573 36.9661 252.641 36.9661C252.88 36.9661 253.114 37.0488 253.307 37.2048C253.55 37.4068 253.693 37.7006 253.693 38.0174V46.8317L253.752 55.6459Z" fill="#26201E"/>
<path d="M32.3648 62.9281C32.498 62.3175 32.3878 61.6931 32.0481 61.1698C31.3549 60.0864 29.9088 59.7696 28.8254 60.4674L8.62145 73.4225C8.0981 73.7576 7.73541 74.281 7.60228 74.887C7.46915 75.4975 7.57933 76.1173 7.91905 76.6452C8.25417 77.1686 8.77752 77.5313 9.3835 77.6644C9.54877 77.7011 9.71864 77.7195 9.8839 77.7195C10.3246 77.7195 10.7561 77.5955 11.1372 77.3476L31.3411 64.3925C31.8736 64.0528 32.2317 63.534 32.3648 62.9281Z" fill="#FC9D27"/>
<path d="M29.5231 55.6194C29.1604 54.3845 27.8658 53.6729 26.6309 54.0356L3.59452 60.7748C2.99772 60.9493 2.50194 61.3487 2.20354 61.895C1.90514 62.4413 1.83626 63.0702 2.01071 63.6716C2.3091 64.6861 3.24103 65.3518 4.251 65.3518C4.46676 65.3518 4.68711 65.3197 4.90288 65.2554L27.9347 58.5208C29.1742 58.1535 29.8858 56.8543 29.5231 55.6194Z" fill="#FC9D27"/>
<path d="M26.328 51.9149C27.6134 51.9149 28.6601 50.8682 28.6647 49.5828C28.6647 48.9584 28.4214 48.3754 27.9853 47.9347C27.5446 47.494 26.9615 47.2507 26.3372 47.2507L2.33671 47.2231C2.33671 47.2231 2.3367 47.2231 2.33211 47.2231C1.0467 47.2231 0 48.2698 0 49.5552C0 50.1796 0.243329 50.7626 0.679451 51.2033C1.11557 51.644 1.70317 51.8874 2.32752 51.8874L26.328 51.9149Z" fill="#FC9D27"/>
<path d="M3.62215 38.3399L26.6402 45.125C26.8606 45.1893 27.0809 45.2214 27.3013 45.2214C27.6869 45.2214 28.0679 45.125 28.4122 44.9368C28.9585 44.6384 29.3579 44.1472 29.5324 43.5458C29.7068 42.9444 29.6426 42.3155 29.3442 41.7692C29.0458 41.2229 28.5545 40.8235 27.9532 40.649L4.9351 33.8639C4.3383 33.6895 3.70478 33.7537 3.15848 34.0521C2.61218 34.3505 2.21278 34.8417 2.03833 35.4431C1.68025 36.678 2.38724 37.9772 3.62215 38.3399Z" fill="#FC9D27"/>
<path d="M8.67657 25.7058L28.853 38.7023C29.234 38.9502 29.6701 39.0741 30.1108 39.0741C30.2761 39.0741 30.4413 39.0557 30.6112 39.019C31.2218 38.8859 31.7405 38.5278 32.0802 38.0045C32.778 36.9256 32.4613 35.475 31.3825 34.7817L11.2061 21.7853C10.6827 21.4502 10.0584 21.3354 9.44782 21.464C8.83725 21.5971 8.31849 21.9552 7.97877 22.4831C7.28098 23.5665 7.59316 25.0126 8.67657 25.7058Z" fill="#FC9D27"/>
<path d="M32.7826 33.1616C33.1911 33.6344 33.7558 33.919 34.3801 33.9649C34.4398 33.9695 34.4949 33.9695 34.5546 33.9695C35.1147 33.9695 35.6472 33.7721 36.0787 33.4003C36.5516 32.9917 36.8362 32.427 36.8821 31.8027C36.928 31.1829 36.726 30.5816 36.3174 30.1087L20.6216 11.9569C19.7815 10.9836 18.3033 10.878 17.3301 11.7181C16.8572 12.1267 16.5726 12.6914 16.5267 13.3111C16.4808 13.9309 16.6828 14.5369 17.0914 15.0051L32.7826 33.1616Z" fill="#FC9D27"/>
<path d="M38.1171 28.9561C38.3742 29.5253 38.8378 29.9569 39.4208 30.1726C39.6871 30.2736 39.9626 30.3241 40.238 30.3241C40.5685 30.3241 40.8945 30.2553 41.2021 30.113C42.3727 29.5804 42.8915 28.194 42.3589 27.0234L32.4154 5.18056C32.1583 4.61131 31.6946 4.17978 31.1116 3.96402C30.5286 3.74366 29.895 3.76661 29.3258 4.0237C28.1551 4.55623 27.6364 5.94263 28.1689 7.11327L38.1171 28.9561Z" fill="#FC9D27"/>
<path d="M44.4202 26.4221C44.5855 27.5836 45.5863 28.4237 46.7294 28.4237C46.8395 28.4237 46.9497 28.4145 47.0599 28.4008C48.3315 28.2171 49.2221 27.0373 49.0385 25.7611L45.6459 2.00391C45.5587 1.38875 45.2373 0.842452 44.737 0.46601C44.2412 0.0941587 43.626 -0.0665209 43.0062 0.0252943C42.3911 0.112519 41.8448 0.43846 41.4683 0.934262C41.0965 1.43465 40.9358 2.04523 41.0276 2.66498L44.4202 26.4221Z" fill="#FC9D27"/>
<path d="M53.1563 28.4053C53.2711 28.4236 53.3813 28.4282 53.496 28.4282C53.9964 28.4282 54.4784 28.2675 54.887 27.9646C55.3874 27.5927 55.7088 27.0464 55.8006 26.4312L59.2391 2.67866C59.4227 1.40702 58.5367 0.222611 57.2651 0.0343903C55.9888 -0.153831 54.8044 0.736777 54.6208 2.00842L51.1823 25.761C51.0951 26.3761 51.2511 26.9913 51.623 27.4917C51.9949 27.9921 52.5366 28.318 53.1563 28.4053Z" fill="#FC9D27"/>
<path d="M57.7885 28.823C58.0042 29.406 58.4358 29.8697 59.005 30.1313C59.3172 30.2736 59.6477 30.3425 59.9737 30.3425C60.8597 30.3425 61.7044 29.8375 62.0992 28.9836L72.0933 7.16377C72.6304 5.99312 72.1116 4.60671 70.9456 4.06959C69.775 3.53707 68.3885 4.05123 67.8514 5.21728L57.8573 27.0372C57.5957 27.6064 57.5727 28.2399 57.7885 28.823Z" fill="#FC9D27"/>
<path d="M63.3295 31.8345C63.3754 32.4542 63.6554 33.0235 64.1283 33.4321C64.5552 33.8039 65.0924 34.0059 65.6524 34.0059C65.7075 34.0059 65.7626 34.0059 65.8177 34.0013C66.4374 33.9554 67.0067 33.6754 67.4153 33.2025L83.1524 15.0828C83.561 14.6145 83.763 14.0132 83.7171 13.3888C83.6712 12.7645 83.3911 12.1998 82.9183 11.7912C82.4454 11.3827 81.844 11.1853 81.2243 11.2266C80.6045 11.2725 80.0353 11.5525 79.6267 12.0254L63.8896 30.1451C63.4902 30.6133 63.2882 31.2147 63.3295 31.8345Z" fill="#FC9D27"/>
<path d="M68.1177 38.0461C68.4528 38.5694 68.9762 38.9321 69.5822 39.0652C69.752 39.102 69.9173 39.1203 70.0872 39.1203C70.5279 39.1203 70.9594 38.9964 71.3404 38.7485L91.5444 25.7934C92.0677 25.4582 92.4304 24.9349 92.5635 24.3289C92.6966 23.7183 92.5864 23.094 92.2467 22.5707C91.9116 22.0473 91.3883 21.6846 90.7823 21.5515C90.1763 21.4184 89.552 21.5285 89.024 21.8683L68.8201 34.8234C67.7367 35.5166 67.4245 36.9627 68.1177 38.0461Z" fill="#FC9D27"/>
<path d="M70.8354 41.8196C70.537 42.3659 70.4681 42.9948 70.6425 43.5962C70.817 44.193 71.2164 44.6888 71.7627 44.9872C72.1116 45.18 72.4926 45.2764 72.8782 45.2764C73.0986 45.2764 73.3189 45.2443 73.5347 45.18L96.5666 38.4408C97.8015 38.0781 98.513 36.7835 98.1504 35.5486C97.7877 34.3137 96.4931 33.6021 95.2582 33.9648L72.2264 40.6994C71.6296 40.8739 71.1338 41.2733 70.8354 41.8196Z" fill="#FC9D27"/>
<path d="M99.5414 47.9573C99.1328 47.5487 98.5957 47.3237 98.0173 47.3237L62.0165 47.3008C60.9377 41.6955 55.9981 37.4536 50.0852 37.4536C43.3827 37.4536 37.9288 42.9074 37.9288 49.6099C37.9288 56.3124 43.3827 61.7663 50.0852 61.7663C55.9797 61.7663 60.9056 57.5474 62.0074 51.9696L98.0127 51.9925C98.0127 51.9925 98.0127 51.9925 98.0173 51.9925C98.5911 51.9925 99.1328 51.7676 99.5368 51.3636C99.9454 50.9596 100.17 50.4179 100.17 49.8395V49.4814C100.17 48.903 99.9454 48.3612 99.5414 47.9573Z" fill="#FC9D27"/>
<path d="M96.5482 60.8712L73.5302 54.0861C72.9334 53.9116 72.2999 53.9759 71.7536 54.2743C71.2073 54.5727 70.8079 55.0639 70.6334 55.6653C70.459 56.2667 70.5232 56.8956 70.8216 57.4419C71.12 57.9882 71.6113 58.3876 72.2127 58.5621L95.2307 65.3472C95.451 65.4115 95.6714 65.4436 95.8918 65.4436C96.2774 65.4436 96.6584 65.3472 97.0027 65.159C97.549 64.8606 97.9484 64.3694 98.1229 63.768C98.2973 63.1666 98.2331 62.5377 97.9347 61.9914C97.6408 61.4451 97.145 61.0457 96.5482 60.8712Z" fill="#FC9D27"/>
<path d="M91.4939 73.5051L71.3175 60.5087C70.7941 60.169 70.1698 60.0588 69.5592 60.1873C68.9487 60.3205 68.4299 60.6786 68.0902 61.2065C67.3924 62.2853 67.7092 63.7314 68.788 64.4292L88.9644 77.4256C89.3454 77.6735 89.7815 77.7975 90.2222 77.7975C90.3875 77.7975 90.5528 77.7791 90.718 77.7424C91.3286 77.6093 91.8473 77.2512 92.1871 76.7278C92.5268 76.2045 92.637 75.5802 92.5084 74.9696C92.3753 74.3636 92.0172 73.8403 91.4939 73.5051Z" fill="#FC9D27"/>
<path d="M67.3831 66.0495C66.9745 65.5766 66.4099 65.292 65.7901 65.2461C65.1658 65.2048 64.5644 65.4022 64.0961 65.8062C63.1229 66.6463 63.0173 68.1245 63.8574 69.0978L79.5532 87.2496C80.0123 87.7821 80.6642 88.0576 81.3207 88.0576C81.8624 88.0576 82.4041 87.8694 82.8448 87.4883C83.3176 87.0798 83.6023 86.5151 83.6482 85.8953C83.6941 85.2756 83.4921 84.6696 83.0881 84.2013L67.3831 66.0495Z" fill="#FC9D27"/>
<path d="M62.0532 70.2548C61.7961 69.6855 61.3324 69.254 60.7494 69.0382C60.1664 68.8179 59.5328 68.8408 58.9636 69.0979C57.7929 69.6304 57.2742 71.0168 57.8067 72.1875L67.7549 94.0303C68.012 94.5996 68.4756 95.0311 69.0587 95.2469C69.3249 95.3479 69.6004 95.3984 69.8758 95.3984C70.2064 95.3984 70.5323 95.3295 70.8399 95.1872C72.0105 94.6547 72.5293 93.2683 71.9968 92.0976L62.0532 70.2548Z" fill="#FC9D27"/>
<path d="M55.7502 72.7937C55.5666 71.522 54.3867 70.6268 53.1105 70.815C51.8389 70.9987 50.9483 72.1785 51.1319 73.4547L54.5199 97.2119C54.6071 97.8271 54.9331 98.3734 55.4289 98.7498C55.8375 99.0574 56.3241 99.2181 56.8245 99.2181C56.9346 99.2181 57.0494 99.2089 57.1596 99.1951C57.7747 99.1079 58.321 98.7865 58.6975 98.2861C59.0739 97.7857 59.23 97.1752 59.1428 96.5554L55.7502 72.7937Z" fill="#FC9D27"/>
<path d="M47.014 70.8059C45.7377 70.6177 44.5533 71.5083 44.3697 72.7799L40.9312 96.5325C40.8394 97.1476 40.9955 97.7628 41.3719 98.2632C41.7437 98.7636 42.2901 99.0849 42.9052 99.1767C43.02 99.1951 43.1302 99.1997 43.2449 99.1997C43.7453 99.1997 44.2274 99.039 44.6359 98.736C45.1363 98.3642 45.4577 97.8179 45.5495 97.2027L48.988 73.4501C49.1716 72.1739 48.2856 70.9895 47.014 70.8059Z" fill="#FC9D27"/>
<path d="M41.1653 69.0794C39.9947 68.5423 38.6082 69.061 38.0711 70.2271L28.0771 92.0469C27.8154 92.6116 27.7924 93.2451 28.0128 93.8328C28.2285 94.4158 28.6601 94.8794 29.2293 95.1411C29.5369 95.2834 29.8674 95.3523 30.198 95.3523C30.4734 95.3523 30.7489 95.3018 31.0106 95.2054C31.5936 94.9896 32.0572 94.5581 32.3189 93.9888L42.313 72.169C42.8501 71.0029 42.3359 69.6165 41.1653 69.0794Z" fill="#FC9D27"/>
<path d="M36.0375 65.7786C35.0643 64.9385 33.5906 65.0395 32.7459 66.0082L17.0088 84.1279C16.1641 85.1011 16.2697 86.5748 17.243 87.4195C17.6699 87.7913 18.207 87.9933 18.7671 87.9933C18.8222 87.9933 18.8773 87.9933 18.9369 87.9887C19.5567 87.9428 20.126 87.6628 20.5345 87.1899L36.2716 69.0702C37.1163 68.1016 37.0108 66.6233 36.0375 65.7786Z" fill="#FC9D27"/>
<path d="M281.753 88.7153C281.313 88.7153 280.886 88.7153 280.441 88.7153C279.435 86.3603 278.43 84.0006 277.42 81.641C277.415 81.641 277.406 81.641 277.401 81.6456C277.401 83.996 277.401 86.3511 277.401 88.7108C276.929 88.7108 276.474 88.7108 276.006 88.7108C276.006 85.4605 276.006 82.2148 276.006 78.96C276.621 78.96 277.222 78.96 277.842 78.96C278.926 81.5354 280.009 84.1108 281.102 86.7046C282.194 84.1108 283.278 81.5354 284.361 78.96C284.972 78.96 285.573 78.96 286.184 78.96C286.184 82.2056 286.184 85.4559 286.184 88.7108C285.729 88.7108 285.27 88.7108 284.797 88.7108C284.797 86.3557 284.797 84.0006 284.797 81.6502C284.788 81.6456 284.779 81.6456 284.765 81.641C283.769 83.996 282.763 86.3511 281.753 88.7153Z" fill="#26201E"/>
<path d="M268.78 88.8851C267.531 88.9034 266.466 88.6096 265.557 87.8843C264.639 87.1543 264.047 86.1949 263.813 85.038C263.602 83.9959 263.643 82.9676 264.001 81.953C264.185 81.4343 264.46 80.9798 264.791 80.5482C265.47 79.676 266.374 79.1848 267.43 78.9047C268.128 78.7211 268.826 78.6982 269.519 78.8451C270.543 79.0562 271.461 79.497 272.173 80.2866C272.567 80.7227 272.898 81.2093 273.114 81.7648C273.412 82.5452 273.527 83.3532 273.481 84.1841C273.44 84.9462 273.247 85.6669 272.898 86.3464C272.632 86.8651 272.26 87.3058 271.824 87.6961C270.933 88.5086 269.868 88.8392 268.78 88.8851ZM265.185 83.9087C265.172 84.8131 265.484 85.6991 266.163 86.4198C267.628 87.9761 270.075 87.6915 271.19 86.2041C271.53 85.7542 271.782 85.2721 271.897 84.7167C272.104 83.6883 271.994 82.7013 271.452 81.7924C270.984 81.0073 270.272 80.5207 269.404 80.2866C268.679 80.0938 267.958 80.1443 267.26 80.4702C266.572 80.7916 266.021 81.2506 265.649 81.9255C265.328 82.5223 265.181 83.1512 265.185 83.9087Z" fill="#26201E"/>
<path d="M289.434 78.96C291.959 78.96 294.475 78.96 296.999 78.96C296.999 82.2102 296.999 85.4559 296.999 88.7108C296.513 88.7108 296.026 88.7108 295.53 88.7108C295.53 85.9058 295.53 83.0962 295.53 80.2821C293.988 80.2821 292.455 80.2821 290.907 80.2821C290.907 83.0916 290.907 85.8966 290.907 88.7108C290.412 88.7108 289.93 88.7108 289.434 88.7108C289.434 85.4651 289.434 82.2194 289.434 78.96Z" fill="#26201E"/>
<path d="M302.784 80.2818C302.752 80.6995 302.715 81.1035 302.683 81.5029C302.6 82.5405 302.517 83.5734 302.435 84.6109C302.394 85.0975 302.361 85.5841 302.311 86.0708C302.251 86.6538 302.091 87.2001 301.783 87.7051C301.361 88.4029 300.718 88.7288 299.937 88.8252C299.68 88.8573 299.423 88.8527 299.152 88.8665C299.152 88.3753 299.152 87.907 299.152 87.4112C299.322 87.4112 299.492 87.425 299.657 87.4066C300.227 87.347 300.576 86.9981 300.722 86.4747C300.823 86.1167 300.86 85.7356 300.892 85.3638C300.993 84.2207 301.081 83.0776 301.172 81.9345C301.25 80.9475 301.328 79.9559 301.407 78.9551C303.509 78.9551 305.602 78.9551 307.71 78.9551C307.71 82.2053 307.71 85.451 307.71 88.7058C307.218 88.7058 306.736 88.7058 306.241 88.7058C306.241 85.8963 306.241 83.0913 306.241 80.2726C305.088 80.2818 303.945 80.2818 302.784 80.2818Z" fill="#26201E"/>
<path d="M338.027 81.9395C337.55 82.068 337.09 82.1919 336.622 82.3205C336.585 82.2195 336.549 82.1277 336.517 82.0359C336.209 81.2417 335.612 80.7596 334.855 80.4291C334.166 80.1261 333.45 80.1032 332.748 80.296C331.903 80.5255 331.205 81.0075 330.764 81.788C330.25 82.6969 330.145 83.6748 330.337 84.6939C330.438 85.2265 330.65 85.7039 330.966 86.14C331.627 87.0536 332.536 87.4484 333.638 87.453C334.593 87.453 335.419 87.127 336.053 86.3971C336.31 86.1033 336.512 85.7544 336.618 85.3458C337.09 85.4744 337.554 85.5983 338.032 85.7269C337.921 86.1584 337.779 86.5669 337.517 86.9158C337.315 87.1913 337.09 87.4576 336.847 87.6963C336.081 88.4537 335.121 88.7843 334.065 88.8669C333.165 88.9358 332.298 88.8256 331.481 88.4354C331.168 88.2839 330.861 88.1094 330.59 87.8937C330.071 87.4759 329.635 86.9755 329.337 86.3741C328.873 85.4514 328.703 84.4736 328.763 83.4498C328.832 82.3251 329.185 81.3151 329.906 80.4337C330.549 79.6487 331.38 79.1942 332.344 78.9279C333.083 78.7214 333.831 78.6984 334.575 78.8499C335.53 79.0427 336.402 79.4421 337.068 80.1812C337.513 80.677 337.866 81.2509 338.027 81.9395Z" fill="#26201E"/>
<path d="M317.203 83.133C317.203 83.5875 317.203 84.0282 317.203 84.4781C315.633 84.4781 314.072 84.4781 312.498 84.4781C312.498 85.4421 312.498 86.397 312.498 87.3657C314.141 87.3657 315.785 87.3657 317.437 87.3657C317.437 87.8247 317.437 88.2654 317.437 88.7108C315.298 88.7108 313.163 88.7108 311.02 88.7108C311.02 85.4651 311.02 82.2148 311.02 78.96C313.131 78.96 315.243 78.96 317.364 78.96C317.364 79.3869 317.364 79.8138 317.364 80.2592C315.743 80.2592 314.127 80.2592 312.498 80.2592C312.498 81.2232 312.498 82.1689 312.498 83.1284C314.068 83.133 315.633 83.133 317.203 83.133Z" fill="#26201E"/>
<path d="M255.164 78.96C255.655 78.96 256.142 78.96 256.637 78.96C256.637 80.3785 256.637 81.7879 256.637 83.2064C257.06 83.2064 257.464 83.2064 257.904 83.2064C258.813 81.8016 259.736 80.3831 260.659 78.96C261.256 78.96 261.843 78.96 262.454 78.96C261.38 80.5713 260.315 82.1689 259.245 83.7757C260.374 85.4192 261.504 87.0581 262.638 88.7108C262.018 88.7108 261.407 88.7108 260.778 88.7108C259.823 87.3427 258.859 85.9563 257.895 84.5745C257.482 84.5745 257.074 84.5745 256.642 84.5745C256.642 85.9563 256.642 87.3335 256.642 88.7153C256.142 88.7153 255.66 88.7153 255.168 88.7153C255.164 85.4651 255.164 82.2194 255.164 78.96Z" fill="#26201E"/>
<path d="M320.206 78.9551C320.692 78.9551 321.17 78.9551 321.67 78.9551C321.67 80.369 321.67 81.783 321.67 83.2061C322.102 83.2061 322.515 83.2061 322.942 83.2061C323.855 81.7967 324.774 80.3782 325.696 78.9596C326.293 78.9596 326.881 78.9596 327.491 78.9596C326.417 80.571 325.352 82.1732 324.282 83.7754C325.416 85.4235 326.541 87.0578 327.675 88.7104C327.055 88.7104 326.449 88.7104 325.816 88.7104C324.861 87.3424 323.901 85.9606 322.933 84.5742C322.524 84.5742 322.111 84.5742 321.684 84.5742C321.684 85.956 321.684 87.3286 321.684 88.715C321.184 88.715 320.701 88.715 320.21 88.715C320.206 85.4647 320.206 82.2191 320.206 78.9551Z" fill="#26201E"/>
<path d="M201.674 79.1284C201.573 79.2891 201.49 79.436 201.398 79.5737C200.797 80.4735 200.191 81.3687 199.589 82.2639C199.236 82.7964 198.882 83.329 198.524 83.8569C198.469 83.9349 198.474 83.9946 198.529 84.0727C198.781 84.4262 199.029 84.7796 199.277 85.1331C199.667 85.6978 200.058 86.2625 200.448 86.8271C200.783 87.3092 201.113 87.7912 201.444 88.2778C201.582 88.4798 201.715 88.691 201.857 88.9067C201.242 88.9067 200.636 88.9067 200.012 88.9067C199.057 87.5341 198.093 86.1477 197.129 84.7659C196.711 84.7659 196.302 84.7659 195.88 84.7659C195.88 86.1477 195.88 87.5203 195.88 88.9067C195.38 88.9067 194.898 88.9067 194.402 88.9067C194.402 87.5341 194.402 86.1615 194.402 84.7705C193.975 84.7705 193.566 84.7705 193.135 84.7705C192.18 86.1385 191.216 87.5249 190.252 88.9113C189.641 88.9113 189.031 88.9113 188.402 88.9113C188.425 88.87 188.438 88.8379 188.457 88.8103C188.833 88.264 189.21 87.7177 189.586 87.176C189.972 86.6205 190.353 86.0605 190.738 85.505C191.064 85.0321 191.386 84.5593 191.712 84.0864C191.739 84.0497 191.762 84.0084 191.79 83.9625C190.715 82.3557 189.646 80.749 188.567 79.1284C189.177 79.1284 189.765 79.1284 190.362 79.1284C191.285 80.547 192.212 81.9747 193.139 83.407C193.557 83.407 193.966 83.407 194.388 83.407C194.388 81.9839 194.388 80.5607 194.388 79.1284C194.888 79.1284 195.37 79.1284 195.871 79.1284C195.871 80.5516 195.871 81.9747 195.871 83.4024C196.298 83.4024 196.706 83.4024 197.133 83.4024C198.051 81.9885 198.974 80.5607 199.901 79.1284C200.48 79.1284 201.068 79.1284 201.674 79.1284Z" fill="#26201E"/>
<path d="M201.568 79.1284C201.467 79.2891 201.384 79.436 201.292 79.5737C200.691 80.4735 200.085 81.3687 199.484 82.2639C199.13 82.7964 198.777 83.329 198.419 83.8569C198.364 83.9349 198.368 83.9946 198.423 84.0727C198.676 84.4262 198.924 84.7796 199.172 85.1331C199.562 85.6978 199.952 86.2625 200.342 86.8271C200.677 87.3092 201.008 87.7912 201.338 88.2778C201.476 88.4798 201.609 88.691 201.752 88.9067C201.136 88.9067 200.53 88.9067 199.906 88.9067C198.951 87.5341 197.987 86.1477 197.023 84.7659C196.605 84.7659 196.197 84.7659 195.774 84.7659C195.774 86.1477 195.774 87.5203 195.774 88.9067C195.274 88.9067 194.792 88.9067 194.296 88.9067C194.296 87.5341 194.296 86.1615 194.296 84.7705C193.869 84.7705 193.461 84.7705 193.029 84.7705C192.074 86.1385 191.11 87.5249 190.146 88.9113C189.536 88.9113 188.925 88.9113 188.296 88.9113C188.319 88.87 188.333 88.8379 188.351 88.8103C188.728 88.264 189.104 87.7177 189.48 87.176C189.866 86.6205 190.247 86.0605 190.633 85.505C190.959 85.0321 191.28 84.5593 191.606 84.0864C191.634 84.0497 191.656 84.0084 191.684 83.9625C190.61 82.3557 189.54 80.749 188.461 79.1284C189.072 79.1284 189.659 79.1284 190.256 79.1284C191.179 80.547 192.106 81.9747 193.034 83.407C193.451 83.407 193.86 83.407 194.282 83.407C194.282 81.9839 194.282 80.5607 194.282 79.1284C194.783 79.1284 195.265 79.1284 195.765 79.1284C195.765 80.5516 195.765 81.9747 195.765 83.4024C196.192 83.4024 196.601 83.4024 197.028 83.4024C197.946 81.9885 198.869 80.5607 199.796 79.1284C200.37 79.1284 200.962 79.1284 201.568 79.1284Z" fill="#26201E"/>
<path d="M211.87 88.9113C211.374 88.9113 210.892 88.9113 210.396 88.9113C210.396 86.5149 210.396 84.1278 210.396 81.7406C210.382 81.736 210.373 81.7314 210.359 81.7268C208.67 84.1232 206.985 86.5149 205.296 88.9113C204.827 88.9113 204.364 88.9113 203.895 88.9113C203.895 85.6519 203.895 82.397 203.895 79.133C204.377 79.133 204.859 79.133 205.355 79.133C205.355 81.5156 205.355 83.9028 205.355 86.29C205.369 86.2946 205.383 86.3038 205.392 86.3084C207.081 83.9166 208.775 81.5248 210.469 79.1284C210.928 79.1284 211.397 79.1284 211.87 79.1284C211.87 82.3879 211.87 85.6427 211.87 88.9113Z" fill="#26201E"/>
<path d="M211.87 88.9113C211.374 88.9113 210.892 88.9113 210.396 88.9113C210.396 86.5149 210.396 84.1278 210.396 81.7406C210.382 81.736 210.373 81.7314 210.359 81.7268C208.67 84.1232 206.985 86.5149 205.296 88.9113C204.827 88.9113 204.364 88.9113 203.895 88.9113C203.895 85.6519 203.895 82.397 203.895 79.133C204.377 79.133 204.859 79.133 205.355 79.133C205.355 81.5156 205.355 83.9028 205.355 86.29C205.369 86.2946 205.383 86.3038 205.392 86.3084C207.081 83.9166 208.775 81.5248 210.469 79.1284C210.928 79.1284 211.397 79.1284 211.87 79.1284C211.87 82.3879 211.87 85.6427 211.87 88.9113Z" fill="#26201E"/>
<path d="M238.739 79.1288C238.739 81.5206 238.739 83.9032 238.739 86.3179C238.79 86.2537 238.822 86.2169 238.845 86.1802C239.354 85.4641 239.864 84.7479 240.374 84.0317C240.723 83.5405 241.067 83.0493 241.416 82.5581C241.769 82.0577 242.123 81.5619 242.472 81.0615C242.811 80.5795 243.156 80.0974 243.495 79.6108C243.61 79.4501 243.716 79.2849 243.821 79.1196C244.294 79.1196 244.758 79.1196 245.226 79.1196C245.226 82.3837 245.226 85.6385 245.226 88.9025C244.739 88.9025 244.257 88.9025 243.752 88.9025C243.752 86.5062 243.752 84.119 243.752 81.7272C243.739 81.7226 243.729 81.718 243.716 81.7134C242.031 84.1098 240.341 86.5062 238.657 88.9025C238.184 88.9025 237.72 88.9025 237.247 88.9025C237.247 85.6385 237.247 82.3837 237.247 79.1196C237.748 79.1288 238.23 79.1288 238.739 79.1288Z" fill="#26201E"/>
<path d="M238.739 79.1288C238.739 81.5206 238.739 83.9032 238.739 86.3179C238.79 86.2537 238.822 86.2169 238.845 86.1802C239.354 85.4641 239.864 84.7479 240.374 84.0317C240.723 83.5405 241.067 83.0493 241.416 82.5581C241.769 82.0577 242.123 81.5619 242.472 81.0615C242.811 80.5795 243.156 80.0974 243.495 79.6108C243.61 79.4501 243.716 79.2849 243.821 79.1196C244.294 79.1196 244.758 79.1196 245.226 79.1196C245.226 82.3837 245.226 85.6385 245.226 88.9025C244.739 88.9025 244.257 88.9025 243.752 88.9025C243.752 86.5062 243.752 84.119 243.752 81.7272C243.739 81.7226 243.729 81.718 243.716 81.7134C242.031 84.1098 240.341 86.5062 238.657 88.9025C238.184 88.9025 237.72 88.9025 237.247 88.9025C237.247 85.6385 237.247 82.3837 237.247 79.1196C237.748 79.1288 238.23 79.1288 238.739 79.1288Z" fill="#26201E"/>
<path d="M234.791 83.6964C234.782 85.0277 234.557 85.9688 234.02 86.8365C233.662 87.4195 233.203 87.8878 232.638 88.2596C231.073 89.2833 229.42 89.343 227.74 88.6085C226.955 88.2642 226.317 87.6949 225.844 86.9742C225.132 85.8862 224.903 84.6834 225.022 83.4072C225.105 82.5487 225.385 81.7683 225.867 81.0429C226.275 80.4278 226.817 79.9779 227.441 79.6014C228.268 79.0965 229.177 78.9312 230.127 78.9633C230.797 78.9817 231.449 79.1148 232.046 79.427C232.748 79.7897 233.377 80.2533 233.841 80.9144C234.488 81.8417 234.805 82.8792 234.791 83.6964ZM226.487 84.0132C226.491 84.1417 226.496 84.2702 226.505 84.4034C226.509 84.4814 226.523 84.564 226.532 84.6421C226.661 85.6107 227.129 86.4003 227.891 86.9971C229.154 87.9842 231.036 87.8189 232.055 86.8502C232.381 86.5427 232.675 86.2167 232.877 85.8173C233.272 85.0461 233.368 84.2243 233.249 83.375C233.102 82.3237 232.578 81.4974 231.706 80.9052C230.627 80.1661 228.8 80.1156 227.584 81.3046C226.822 82.0483 226.5 82.9619 226.487 84.0132Z" fill="#26201E"/>
<path d="M234.791 83.6964C234.782 85.0277 234.557 85.9688 234.02 86.8365C233.662 87.4195 233.203 87.8878 232.638 88.2596C231.073 89.2833 229.42 89.343 227.74 88.6085C226.955 88.2642 226.317 87.6949 225.844 86.9742C225.132 85.8862 224.903 84.6834 225.022 83.4072C225.105 82.5487 225.385 81.7683 225.867 81.0429C226.275 80.4278 226.817 79.9779 227.441 79.6014C228.268 79.0965 229.177 78.9312 230.127 78.9633C230.797 78.9817 231.449 79.1148 232.046 79.427C232.748 79.7897 233.377 80.2533 233.841 80.9144C234.488 81.8417 234.805 82.8792 234.791 83.6964ZM226.487 84.0132C226.491 84.1417 226.496 84.2702 226.505 84.4034C226.509 84.4814 226.523 84.564 226.532 84.6421C226.661 85.6107 227.129 86.4003 227.891 86.9971C229.154 87.9842 231.036 87.8189 232.055 86.8502C232.381 86.5427 232.675 86.2167 232.877 85.8173C233.272 85.0461 233.368 84.2243 233.249 83.375C233.102 82.3237 232.578 81.4974 231.706 80.9052C230.627 80.1661 228.8 80.1156 227.584 81.3046C226.822 82.0483 226.5 82.9619 226.487 84.0132Z" fill="#26201E"/>
<path d="M222.539 79.1284C222.539 82.397 222.539 85.6473 222.539 88.9113C222.052 88.9113 221.57 88.9113 221.065 88.9113C221.065 86.1018 221.065 83.2922 221.065 80.4781C219.903 80.4781 218.76 80.4781 217.603 80.4781C217.585 80.6985 217.567 80.9188 217.548 81.1346C217.424 82.7368 217.3 84.3389 217.172 85.9457C217.121 86.5379 217.025 87.1209 216.75 87.6581C216.313 88.5028 215.62 88.971 214.67 89.0353C214.44 89.0536 214.211 89.0399 213.972 89.0399C213.972 88.5808 213.972 88.1171 213.972 87.6213C214.11 87.6213 214.248 87.6259 214.385 87.6213C214.854 87.603 215.207 87.3918 215.423 86.9786C215.57 86.7032 215.652 86.4048 215.675 86.0926C215.772 84.8761 215.868 83.6549 215.965 82.4384C216.047 81.3733 216.134 80.3128 216.222 79.2478C216.226 79.2111 216.235 79.1743 216.24 79.133C218.343 79.1284 220.431 79.1284 222.539 79.1284Z" fill="#26201E"/>
<path d="M222.539 79.1284C222.539 82.397 222.539 85.6473 222.539 88.9113C222.052 88.9113 221.57 88.9113 221.065 88.9113C221.065 86.1018 221.065 83.2922 221.065 80.4781C219.903 80.4781 218.76 80.4781 217.603 80.4781C217.585 80.6985 217.567 80.9188 217.548 81.1346C217.424 82.7368 217.3 84.3389 217.172 85.9457C217.121 86.5379 217.025 87.1209 216.75 87.6581C216.313 88.5028 215.62 88.971 214.67 89.0353C214.44 89.0536 214.211 89.0399 213.972 89.0399C213.972 88.5808 213.972 88.1171 213.972 87.6213C214.11 87.6213 214.248 87.6259 214.385 87.6213C214.854 87.603 215.207 87.3918 215.423 86.9786C215.57 86.7032 215.652 86.4048 215.675 86.0926C215.772 84.8761 215.868 83.6549 215.965 82.4384C216.047 81.3733 216.134 80.3128 216.222 79.2478C216.226 79.2111 216.235 79.1743 216.24 79.133C218.343 79.1284 220.431 79.1284 222.539 79.1284Z" fill="#26201E"/>
<path d="M239.322 76.1309C239.671 76.1309 240.002 76.1309 240.351 76.1309C240.374 76.5073 240.456 76.8562 240.787 77.0949C240.984 77.2372 241.205 77.2739 241.443 77.2602C241.957 77.2326 242.224 76.9021 242.348 76.1355C242.366 76.1355 242.389 76.1309 242.412 76.1309C242.733 76.1309 243.05 76.1309 243.367 76.1309C243.482 76.7185 243.087 77.5173 242.513 77.8799C241.898 78.2656 240.828 78.3023 240.374 78.0177C239.667 77.5724 239.304 76.971 239.322 76.1309Z" fill="#26201E"/>
<path d="M239.322 76.1309C239.671 76.1309 240.002 76.1309 240.351 76.1309C240.374 76.5073 240.456 76.8562 240.787 77.0949C240.984 77.2372 241.205 77.2739 241.443 77.2602C241.957 77.2326 242.224 76.9021 242.348 76.1355C242.366 76.1355 242.389 76.1309 242.412 76.1309C242.733 76.1309 243.05 76.1309 243.367 76.1309C243.482 76.7185 243.087 77.5173 242.513 77.8799C241.898 78.2656 240.828 78.3023 240.374 78.0177C239.667 77.5724 239.304 76.971 239.322 76.1309Z" fill="#26201E"/>
</g>
<defs>
<clipPath id="clip0_403_391">
<rect width="401" height="100" fill="white"/>
</clipPath>
</defs>
</svg>
