<svg width="56" height="56" viewBox="0 0 56 56" fill="none" xmlns="http://www.w3.org/2000/svg">
<path d="M23.5765 26.8773C23.5765 24.4547 21.6054 22.4836 19.1828 22.4836C16.7601 22.4836 14.7891 24.4547 14.7891 26.8773C14.7891 29.3 16.7601 31.271 19.1828 31.271C21.6054 31.271 23.5765 29.3001 23.5765 26.8773ZM16.4297 26.8773C16.4297 25.3593 17.6647 24.1243 19.1828 24.1243C20.7008 24.1243 21.9358 25.3593 21.9358 26.8773C21.9358 28.3954 20.7008 29.6304 19.1828 29.6304C17.6647 29.6304 16.4297 28.3954 16.4297 26.8773ZM20.366 11.8542C20.8191 11.8542 21.1863 11.4871 21.1863 11.0339C21.1863 10.5808 20.8191 10.2136 20.366 10.2136H17.9993C17.5462 10.2136 17.179 10.5808 17.179 11.0339C17.179 11.4871 17.5462 11.8542 17.9993 11.8542H20.366Z" fill="#5F9FC0"/>
<path d="M55.1797 54.3594H48.9138C49.1003 54.1628 49.267 53.9484 49.4116 53.7192C49.9959 52.7924 50.1841 51.6936 49.942 50.6251C49.5142 48.737 48.0294 48.018 47.9644 47.9582L44.2447 45.613L48.1295 43.1637C49.0562 42.5795 49.6999 41.6693 49.942 40.6007C50.1842 39.5322 49.9958 38.4334 49.4115 37.5067C48.6078 36.2319 47.6572 36.036 44.2454 33.7761L48.1294 31.3276C50.0425 30.1215 50.6177 27.5838 49.4117 25.6705C48.6799 24.5098 47.4152 23.7559 45.839 23.7559H39.1297C38.6765 23.7559 38.3094 24.1231 38.3094 24.5762C38.3094 25.0294 38.6765 25.3965 39.1297 25.3965H42.1552L36.6959 28.8382H31.7735V25.3965H35.85C36.3031 25.3965 36.6703 25.0294 36.6703 24.5762C36.6703 24.1231 36.3031 23.7559 35.85 23.7559H31.6941C31.4039 22.5892 30.3477 21.722 29.0925 21.722H28.5134V15.2994H31.589C31.7581 15.2994 31.9231 15.2471 32.0614 15.1498C32.1996 15.0524 32.3044 14.9147 32.3614 14.7555C32.4184 14.5963 32.4248 14.4233 32.3797 14.2604C32.3346 14.0974 32.2402 13.9523 32.1095 13.845L20.003 3.90775V0.820312C20.003 0.367172 19.6359 0 19.1827 0C18.7296 0 18.3624 0.367172 18.3624 0.820312V3.90775L13.3663 8.00866C13.2017 8.14781 13.0984 8.34615 13.0789 8.5608C13.0594 8.77545 13.1251 8.98917 13.2618 9.15576C13.3986 9.32236 13.5954 9.42844 13.8098 9.45108C14.0241 9.47372 14.2388 9.4111 14.4073 9.27675L19.1827 5.35697L29.2967 13.6587H9.06872L11.8599 11.3677C12.0245 11.2285 12.1277 11.0302 12.1472 10.8155C12.1668 10.6009 12.1011 10.3872 11.9643 10.2206C11.8275 10.054 11.6307 9.94789 11.4164 9.92525C11.202 9.90261 10.9874 9.96523 10.8188 10.0996L6.25592 13.845C6.12534 13.9524 6.03111 14.0974 5.9861 14.2604C5.94109 14.4233 5.9475 14.5962 6.00447 14.7553C6.06143 14.9145 6.16616 15.0522 6.30434 15.1496C6.44251 15.2469 6.60739 15.2993 6.77644 15.2994H9.85195V18.3671L9.85206 18.3692V29.3823C9.85206 29.8354 10.2192 30.2026 10.6724 30.2026C11.1255 30.2026 11.4927 29.8354 11.4927 29.3823V19.1874H26.8727V34.5674H11.4927V32.662C11.4927 32.2089 11.1255 31.8417 10.6724 31.8417C10.2192 31.8417 9.85206 32.2089 9.85206 32.662V35.3857L9.85195 35.3877V54.3594H0.820312C0.367172 54.3594 0 54.7265 0 55.1797C0 55.6328 0.367172 56 0.820312 56H55.1797C55.6328 56 56 55.6328 56 55.1797C56 54.7265 55.6328 54.3594 55.1797 54.3594ZM21.2541 46.381H17.1113V44.0222H21.2541V46.381ZM21.2541 42.3815H17.1113V40.0227H21.2541V42.3815ZM17.1113 48.0216H21.2541V50.3804H17.1113V48.0216ZM21.2541 36.2082V38.3821H17.1113V36.2082H21.2541ZM17.1113 52.021H21.2541V54.3594H17.1113V52.021ZM22.8947 36.2082H26.8727V54.3594H22.8947V36.2082ZM28.5133 35.3878V32.5129H29.0924C30.3477 32.5129 31.4037 31.6457 31.694 30.479H34.1166C32.4063 31.7417 31.9329 34.1369 33.0844 35.9637C33.8684 37.2073 34.6438 37.316 38.251 39.6945L34.3666 42.1435C33.4399 42.7278 32.7962 43.638 32.554 44.7066C32.3119 45.7751 32.5003 46.8739 33.0846 47.8006C33.9176 49.1217 34.47 49.0235 42.7361 54.3595H28.5133V35.3878ZM43.5006 49.9928C43.9681 49.2515 44.7687 48.845 45.5865 48.845C46.0346 48.845 46.4881 48.9673 46.8944 49.2232L47.2545 49.4502L47.2547 49.4503C48.4023 50.174 48.7473 51.6964 48.0238 52.8442C47.5703 53.5637 46.7908 53.9932 45.9388 53.9932C45.4753 53.9929 45.0213 53.8613 44.6295 53.6135L44.2683 53.3858C43.1219 52.6618 42.7773 51.1401 43.5006 49.9928ZM44.1213 47.4748C43.2909 47.7893 42.5857 48.3661 42.1129 49.1178C41.6332 49.8788 41.421 50.7558 41.4943 51.6367L38.0163 49.444C38.6976 49.1834 38.8058 49.0127 42.7067 46.5829L44.1213 47.4748ZM48.342 40.2383C48.2714 40.5538 48.1389 40.8521 47.9523 41.1161C47.7656 41.38 47.5284 41.6043 47.2545 41.776C37.5733 47.7339 37.7962 48.0745 36.5573 48.0745C36.1409 48.0751 35.7312 47.9701 35.3665 47.7691C35.0019 47.5682 34.6942 47.2779 34.4724 46.9256C34.1218 46.3695 34.0088 45.7102 34.1541 45.0691C34.2993 44.4279 34.6855 43.8819 35.2416 43.5314L44.6293 37.6126C45.0209 37.3651 45.4747 37.2338 45.938 37.2341C46.7557 37.2341 47.5564 37.6405 48.0235 38.3818C48.1968 38.6548 48.3141 38.9594 48.3688 39.2781C48.4235 39.5968 48.4144 39.9232 48.342 40.2383ZM44.4787 35.8628C44.2259 35.9592 43.9834 36.0805 43.7545 36.2247L39.7893 38.7247L38.0166 37.6071C38.6975 37.3466 38.8165 37.1692 42.7071 34.7459L44.4787 35.8628ZM48.0237 26.5456C48.7473 27.6935 48.4023 29.2161 47.2544 29.9398L37.8666 35.8579C37.4748 36.1057 37.0208 36.2374 36.5573 36.2376C36.1097 36.2382 35.6703 36.1167 35.2867 35.8862L35.2419 35.8579C35.2353 35.8538 35.2284 35.8505 35.2216 35.8466C34.9195 35.6517 34.6638 35.3929 34.4725 35.0886C33.7489 33.9407 34.0939 32.4181 35.2418 31.6945L44.6295 25.7763C45.021 25.5288 45.4748 25.3976 45.9379 25.3979C46.7556 25.3979 47.5565 25.8044 48.0237 26.5456ZM29.0924 23.3628C29.6661 23.3628 30.1329 23.8296 30.1329 24.4033V29.8319C30.1329 30.4056 29.6661 30.8724 29.0924 30.8724H28.5133V23.3629H29.0924V23.3628ZM11.4926 17.5468V15.2994H26.8727V17.5468H11.4926ZM11.4926 36.2082H15.4707V54.3594H11.4926V36.2082Z" fill="#5F9FC0"/>
</svg>
