<svg width="26" height="23" viewBox="0 0 26 23" fill="none" xmlns="http://www.w3.org/2000/svg">
<path d="M18.8036 0C16.4067 0 14.3081 1.064 13 2.8625C11.6919 1.064 9.5933 0 7.19643 0C5.28848 0.00221995 3.45929 0.785612 2.11016 2.17831C0.761034 3.571 0.0021505 5.45927 0 7.42883C0 15.8162 12.0471 22.6052 12.5601 22.8856C12.6953 22.9607 12.8465 23 13 23C13.1535 23 13.3047 22.9607 13.4399 22.8856C13.9529 22.6052 26 15.8162 26 7.42883C25.9978 5.45927 25.239 3.571 23.8898 2.17831C22.5407 0.785612 20.7115 0.00221995 18.8036 0ZM13 20.9445C10.8805 19.6696 1.85714 13.862 1.85714 7.42883C1.85899 5.96762 2.42211 4.5668 3.42302 3.53356C4.42393 2.50033 5.78093 1.91902 7.19643 1.91712C9.45402 1.91712 11.3495 3.15845 12.1411 5.15226C12.211 5.32807 12.33 5.47844 12.483 5.58427C12.6359 5.69009 12.8159 5.74659 13 5.74659C13.1841 5.74659 13.3641 5.69009 13.517 5.58427C13.67 5.47844 13.789 5.32807 13.8589 5.15226C14.6505 3.15486 16.546 1.91712 18.8036 1.91712C20.2191 1.91902 21.5761 2.50033 22.577 3.53356C23.5779 4.5668 24.141 5.96762 24.1429 7.42883C24.1429 13.8524 15.1171 19.6684 13 20.9445Z" fill="#FC9D27"/>
</svg>
