<svg width="20" height="22" viewBox="0 0 20 22" fill="none" xmlns="http://www.w3.org/2000/svg">
<path d="M1 18.6C1 19.7314 1 20.2971 1.29289 20.6485C1.58579 21 2.05719 21 3 21C3.94281 21 4.41421 21 4.70711 20.6485C5 20.2971 5 19.7314 5 18.6V11.4C5 10.2686 5 9.70294 4.70711 9.35147C4.41421 9 3.94281 9 3 9C2.05719 9 1.58579 9 1.29289 9.35147C1 9.70294 1 10.2686 1 11.4V13.8" stroke="#FC9D27" stroke-width="2" stroke-linecap="round"/>
<path d="M8 7.28571C8 6.20822 8 5.66947 8.29289 5.33474C8.58579 5 9.05719 5 10 5C10.9428 5 11.4142 5 11.7071 5.33474C12 5.66947 12 6.20822 12 7.28571V18.7143C12 19.7918 12 20.3305 11.7071 20.6653C11.4142 21 10.9428 21 10 21C9.05719 21 8.58579 21 8.29289 20.6653C8 20.3305 8 19.7918 8 18.7143V7.28571Z" stroke="#FC9D27" stroke-width="2"/>
<path d="M19 11.5882V18.6471C19 19.7562 19 20.3108 18.7071 20.6554C18.4142 21 17.9428 21 17 21C16.0572 21 15.5858 21 15.2929 20.6554C15 20.3108 15 19.7562 15 18.6471V3.35294C15 2.24375 15 1.68916 15.2929 1.34458C15.5858 1 16.0572 1 17 1C17.9428 1 18.4142 1 18.7071 1.34458C19 1.68916 19 2.24375 19 3.35294V6.88235" stroke="#FC9D27" stroke-width="2" stroke-linecap="round"/>
</svg>
