<svg width="56" height="40" viewBox="0 0 56 40" fill="none" xmlns="http://www.w3.org/2000/svg">
<path d="M45.4309 38.9365H52.4424C53.1485 38.9365 53.7882 38.9365 54.2508 38.9365C54.7134 38.9365 55 38.9365 55 38.9365C55 38.9365 53.8546 38.9365 52.4424 38.9365L2.55744 38.9365C1.85141 38.9365 1.21177 38.9365 0.749087 38.9365C0.511309 38.9365 0.322729 38.9365 0.19418 38.9365C0.0656308 38.9365 -0.000357473 38.9365 1.4564e-06 38.9365C1.4564e-06 38.9365 1.14526 38.9365 2.55744 38.9365L42.111 38.9365" stroke="#5F9FC0" stroke-width="2" stroke-miterlimit="10" stroke-linecap="round" stroke-linejoin="round"/>
<path d="M10.2368 1.00003H6.86975V38.5393H10.2368V1.00003ZM29.6834 1.00003H26.3165V38.5393H29.6834V1.00003ZM49.1302 1.00003H45.7631V38.5393H49.1302V1.00003Z" stroke="#5F9FC0" stroke-width="2" stroke-miterlimit="10" stroke-linecap="round" stroke-linejoin="round"/>
<path d="M29.6838 3.80629H45.7628V7.17285H29.6838" stroke="#5F9FC0" stroke-width="2" stroke-miterlimit="10" stroke-linecap="round" stroke-linejoin="round"/>
<path d="M26.3162 7.17285H10.2372V3.80629H26.3162" stroke="#5F9FC0" stroke-width="2" stroke-miterlimit="10" stroke-linecap="round" stroke-linejoin="round"/>
<path d="M17.1728 12.0375H26.3163V15.4041H10.2373V12.0375H14.3603" stroke="#5F9FC0" stroke-width="2" stroke-miterlimit="10" stroke-linecap="round" stroke-linejoin="round"/>
<path d="M10.2368 23.6363H26.3165V20.2693H10.2368V23.6363ZM10.2368 31.8679H26.3165V28.5009H10.2368V31.8679Z" stroke="#5F9FC0" stroke-width="2" stroke-miterlimit="10" stroke-linecap="round" stroke-linejoin="round"/>
<path d="M39.6873 18.7704C39.6873 16.6009 37.9286 14.8422 35.7592 14.8422C33.5897 14.8422 31.831 16.6009 31.831 18.7704C31.831 20.9398 33.5897 22.6985 35.7592 22.6985C37.9286 22.6985 39.6873 20.9398 39.6873 18.7704Z" stroke="#5F9FC0" stroke-width="2" stroke-miterlimit="10" stroke-linecap="round" stroke-linejoin="round"/>
<path d="M43.6155 18.7704C43.6155 16.6009 41.8567 14.8422 39.6874 14.8422C37.5179 14.8422 35.7592 16.6009 35.7592 18.7704C35.7592 20.9398 37.5179 22.6985 39.6874 22.6985C41.8567 22.6985 43.6155 20.9398 43.6155 18.7704Z" stroke="#5F9FC0" stroke-width="2" stroke-miterlimit="10" stroke-linecap="round" stroke-linejoin="round"/>
<path d="M39.6873 14.842V7.17273" stroke="#5F9FC0" stroke-width="2" stroke-miterlimit="10" stroke-linecap="round" stroke-linejoin="round"/>
<path d="M35.7592 14.842V7.17273" stroke="#5F9FC0" stroke-width="2" stroke-miterlimit="10" stroke-linecap="round" stroke-linejoin="round"/>
</svg>
