<svg width="47" height="47" viewBox="0 0 47 47" fill="none" xmlns="http://www.w3.org/2000/svg">
<path d="M27.5498 2.29444C29.2864 2.64736 31.8814 2.78476 34.9069 1.66141C35.6438 1.38751 36.4561 1.80107 36.6802 2.54978C37.3682 4.84549 39.51 7.58178 43.3535 8.28905C44.2067 8.44582 44.6886 9.35221 44.3482 10.1442C43.6993 11.6557 43.1226 14.1081 44.0844 17.191M27.5502 17.1015V8.00966M23.4498 17.1015V3.03532C23.4498 1.9109 24.3674 1 25.5 1C26.632 1 27.5502 1.9108 27.5502 3.03532V4.85621M7.04927 21.5316V22.0722C7.04927 27.734 11.4328 32.378 17.0134 32.8452M31.9972 32.884H33.0591C34.3015 32.884 35.495 32.6777 36.6067 32.2975M43.9498 21.5316V22.0722C43.9498 25.6843 42.1665 28.8819 39.4265 30.8442M16.281 17.2817H44.6387C45.3901 17.2817 46 17.8862 46 18.6332V20C46 20.7469 45.3901 21.3514 44.6387 21.3514H20.3804M14.219 21.3514H6.36134C5.60897 21.3514 5 20.7469 5 20V18.6332C5 17.8862 5.60897 17.2817 6.36134 17.2817H10.1196M35.9415 1.79557L27.6173 17.1583M43.9498 9.14039L27.6945 17.2105M11.5342 36.7524L20.0331 30.8447M22.3426 34.2077L14.0103 40M32.3909 39.2115L27.8535 34.7069" stroke="#5F9FC0" stroke-width="2" stroke-miterlimit="10" stroke-linecap="round" stroke-linejoin="round"/>
<path d="M16.1972 23.1334L6.21557 13.3C5.37079 12.4678 4.22505 12.0003 3.03037 12.0003C2.76359 12.0006 2.49937 11.949 2.25289 11.8484C2.00642 11.7478 1.78255 11.6002 1.59416 11.4141C0.801813 10.6336 0.802082 9.36645 1.59416 8.58614C1.78255 8.40005 2.00642 8.25247 2.25289 8.15188C2.49937 8.05129 2.76359 7.99968 3.03037 8C4.15505 7.99997 5.26872 8.21818 6.30779 8.64219C7.34686 9.0662 8.29097 9.68769 9.0862 10.4712L23.1634 24.3393M20.2766 27.1522L18.4216 25.3247M30.6214 31.6865L35 36" stroke="#5F9FC0" stroke-width="2" stroke-miterlimit="10" stroke-linecap="round" stroke-linejoin="round"/>
<path d="M25.5 35C28.5376 35 31 32.5376 31 29.5C31 26.4624 28.5376 24 25.5 24C22.4624 24 20 26.4624 20 29.5C20 32.5376 22.4624 35 25.5 35Z" stroke="#5F9FC0" stroke-width="2" stroke-miterlimit="10" stroke-linecap="round" stroke-linejoin="round"/>
<path d="M37 46C39.7614 46 42 43.7614 42 41C42 38.2386 39.7614 36 37 36C34.2386 36 32 38.2386 32 41C32 43.7614 34.2386 46 37 46Z" stroke="#5F9FC0" stroke-width="2" stroke-miterlimit="10" stroke-linecap="round" stroke-linejoin="round"/>
<path d="M37 43C38.1046 43 39 42.1046 39 41C39 39.8954 38.1046 39 37 39C35.8954 39 35 39.8954 35 41C35 42.1046 35.8954 43 37 43Z" stroke="#5F9FC0" stroke-width="2" stroke-miterlimit="10" stroke-linecap="round" stroke-linejoin="round"/>
<path d="M9 46C11.7614 46 14 43.7614 14 41C14 38.2386 11.7614 36 9 36C6.23858 36 4 38.2386 4 41C4 43.7614 6.23858 46 9 46Z" stroke="#5F9FC0" stroke-width="2" stroke-miterlimit="10" stroke-linecap="round" stroke-linejoin="round"/>
<path d="M9 43C10.1046 43 11 42.1046 11 41C11 39.8954 10.1046 39 9 39C7.89543 39 7 39.8954 7 41C7 42.1046 7.89543 43 9 43Z" stroke="#5F9FC0" stroke-width="2" stroke-miterlimit="10" stroke-linecap="round" stroke-linejoin="round"/>
<path d="M25.5 32C26.8807 32 28 30.8807 28 29.5C28 28.1193 26.8807 27 25.5 27C24.1193 27 23 28.1193 23 29.5C23 30.8807 24.1193 32 25.5 32Z" stroke="#5F9FC0" stroke-width="2" stroke-miterlimit="10" stroke-linecap="round" stroke-linejoin="round"/>
</svg>
