<svg width="43" height="43" viewBox="0 0 43 43" fill="none" xmlns="http://www.w3.org/2000/svg">
<circle cx="21.5" cy="21.5" r="21" stroke="#D8E4F0"/>
<path d="M16.62 19.79C18.06 22.62 20.38 24.93 23.21 26.38L25.41 24.18C25.68 23.91 26.08 23.82 26.43 23.94C27.55 24.31 28.76 24.51 30 24.51C30.55 24.51 31 24.96 31 25.51V29C31 29.55 30.55 30 30 30C20.61 30 13 22.39 13 13C13 12.45 13.45 12 14 12H17.5C18.05 12 18.5 12.45 18.5 13C18.5 14.25 18.7 15.45 19.07 16.57C19.18 16.92 19.1 17.31 18.82 17.59L16.62 19.79Z" fill="#306079"/>
</svg>
